<svg width="20" height="13" fill="none" xmlns="http://www.w3.org/2000/svg"><g clip-path="url(#clip0)" fill="#333"><path d="M17.278 1.232c-.017-.016-.017-.033-.035-.033C16.706.473 15.81 0 14.79 0H3.008A3.085 3.085 0 00.555 1.199l-.018.017s0 .016-.018.016A2.785 2.785 0 000 2.836V8.07c0 1.57 1.343 2.836 3.008 2.836h8.272a.368.368 0 00.376-.354c0-.203-.179-.355-.376-.355H3.008c-1.235 0-2.238-.945-2.238-2.11V2.853c0-.32.072-.608.197-.878L8.684 7.26c.072.05.143.067.215.067.071 0 .161-.017.215-.067l7.717-5.302c.125.27.197.574.197.878v1.858c0 .202.179.354.376.354a.368.368 0 00.376-.354V2.836a2.535 2.535 0 00-.502-1.604zM8.898 6.5l-7.5-5.132a2.284 2.284 0 011.61-.642H14.79c.626 0 1.2.253 1.611.642L8.9 6.5z"/><path d="M15.846 13c-2.291 0-4.154-1.756-4.154-3.917 0-2.16 1.863-3.917 4.154-3.917 2.292 0 4.172 1.756 4.172 3.917C20 11.244 18.138 13 15.846 13zm0-7.142c-1.88 0-3.402 1.436-3.402 3.208 0 1.773 1.522 3.208 3.402 3.208 1.88 0 3.402-1.435 3.402-3.208 0-1.756-1.522-3.208-3.402-3.208z"/><path d="M15.846 10.299c-.716 0-1.307-.557-1.307-1.233 0-.675.59-1.232 1.307-1.232.716 0 1.307.557 1.307 1.232 0 .692-.59 1.233-1.307 1.233zm0-1.74a.524.524 0 00-.537.507c0 .287.25.507.537.507a.524.524 0 00.537-.507.524.524 0 00-.537-.506z"/><path d="M15.846 11.565c-.125 0-.269-.017-.394-.034-1.11-.152-2.023-.996-2.202-2.043a2.382 2.382 0 01.734-2.178c.609-.574 1.45-.827 2.31-.692 1.074.169 1.97.996 2.148 2.01.054.286.054.59 0 .877-.072.422-.465.726-.985.76-.483.017-.895-.22-1.02-.625a.749.749 0 01-.054-.287V8.222c0-.203.18-.355.376-.355.215 0 .376.17.376.355v1.131c0 .034 0 .05.018.085.036.118.233.118.25.118.126 0 .251-.068.27-.169a1.83 1.83 0 000-.625c-.126-.726-.753-1.3-1.523-1.418a1.935 1.935 0 00-1.647.49c-.43.405-.627.979-.52 1.553.126.743.77 1.334 1.558 1.452.448.067.878-.017 1.254-.237a.39.39 0 01.52.119.344.344 0 01-.126.49c-.394.219-.86.354-1.343.354z"/></g><defs><clipPath id="clip0"><path fill="#fff" d="M0 0h20v13H0z"/></clipPath></defs></svg>