<svg width="24" height="21" fill="none" xmlns="http://www.w3.org/2000/svg"><g clip-path="url(#clip0)" fill="#0A9F30"><path d="M22.3.426H2.557C1.66.426.93 1.169.93 2.08v2.588c0 .301.24.549.54.549h21.92c.296 0 .54-.244.54-.549V2.08c0-.911-.732-1.654-1.629-1.654zm.549 3.698H2.009V2.08c0-.31.248-.557.548-.557H22.3c.305 0 .549.252.549.557v2.044zm.54 2.326a.544.544 0 00-.54.55v11.776c0 .31-.248.557-.549.557H2.557a.554.554 0 01-.548-.557V6.999c0-.3-.24-.548-.54-.548a.544.544 0 00-.54.548v11.777c0 .91.731 1.654 1.628 1.654H22.3c.897 0 1.629-.743 1.629-1.654V6.999a.541.541 0 00-.54-.548z"/><path d="M3.51 2.182a.569.569 0 00-.56.575c0 .314.252.57.56.57a.569.569 0 00.567-.57.575.575 0 00-.566-.575zm2.087 0a.569.569 0 00-.562.575c0 .314.253.57.562.57a.569.569 0 00.566-.57.57.57 0 00-.566-.575zm2.09 0a.569.569 0 00-.562.575c0 .314.253.57.562.57a.567.567 0 00.561-.57.563.563 0 00-.561-.575zM4.072 16.581a.544.544 0 00-.54.55c0 .3.24.548.54.548h1.75c.297 0 .54-.244.54-.549 0-.3-.239-.549-.54-.549h-1.75zm16.848 0h-4.581a.544.544 0 00-.54.55c0 .3.24.548.54.548h4.58c.297 0 .54-.244.54-.549a.544.544 0 00-.54-.549zm0-2.189H18.9a.544.544 0 00-.54.548c0 .301.239.549.54.549h2.02c.296 0 .54-.243.54-.549a.544.544 0 00-.54-.548z"/></g><defs><clipPath id="clip0"><path fill="#fff" transform="translate(.929 .426)" d="M0 0h23v20H0z"/></clipPath></defs></svg>