<svg width="28" height="25" fill="none" xmlns="http://www.w3.org/2000/svg"><g clip-path="url(#clip0)" fill="#0A9F30"><path d="M25.517.313H2.34C1.287.313.43 1.151.43 2.178v16.674c0 1.027.858 1.865 1.911 1.865h8.813l2.392 3.337a.638.638 0 00.517.264h.015a.643.643 0 00.521-.29l2.147-3.311h8.767c1.053 0 1.912-.838 1.912-1.865V2.178c.005-1.027-.854-1.865-1.907-1.865zm.644 18.534a.636.636 0 01-.644.628h-9.114a.63.63 0 00-.532.29l-1.83 2.817-2.04-2.838a.64.64 0 00-.52-.264H2.34a.637.637 0 01-.645-.628V2.178c0-.349.292-.628.644-.628h23.177c.358 0 .644.284.644.628v16.669z"/><path d="M17.282 3.126c-1.814 0-3.296 1.441-3.296 3.217 0 .434.091.848.255 1.232l-2.658 1.78a2.92 2.92 0 00-2.04-.823c-1.59 0-2.888 1.267-2.888 2.818 0 1.556 1.294 2.818 2.888 2.818.772 0 1.467-.299 1.989-.783l2.07 1.432a2.119 2.119 0 00-.153.783c0 1.227 1.022 2.224 2.28 2.224 1.257 0 2.28-.997 2.28-2.224 0-1.227-1.023-2.225-2.28-2.225-.517 0-.987.175-1.365.454l-2.132-1.471c.123-.314.2-.654.2-1.013a2.74 2.74 0 00-.18-.942l2.69-1.8a3.332 3.332 0 002.34.957c1.82 0 3.297-1.442 3.297-3.217 0-1.776-1.482-3.217-3.297-3.217zM16.735 15.6c0 .548-.454.992-1.017.992a1.004 1.004 0 01-1.017-.992.62.62 0 01.015-.135h.016c.2 0 .393-.09.516-.26a.602.602 0 00.082-.523.99.99 0 01.383-.075c.568 0 1.022.444 1.022.993zm-5.576-4.255c0 .24-.057.464-.154.664a.544.544 0 00-.158.144.621.621 0 00-.102.24 1.632 1.632 0 01-1.207.534c-.894 0-1.62-.709-1.62-1.582 0-.872.726-1.586 1.62-1.586.363 0 .69.12.961.315l-.613.409a.608.608 0 00-.164.857.639.639 0 00.88.16l.541-.36c.005.07.016.136.016.205zm6.123-3.022c-1.119 0-2.029-.888-2.029-1.98s.91-1.98 2.03-1.98c1.119 0 2.029.888 2.029 1.98s-.91 1.98-2.03 1.98z"/></g><defs><clipPath id="clip0"><path fill="#fff" transform="translate(.429 .313)" d="M0 0h27v24H0z"/></clipPath></defs></svg>