<svg width="27" height="22" fill="none" xmlns="http://www.w3.org/2000/svg"><g clip-path="url(#clip0)" fill="#0A9F30"><path d="M25.466 0H11.572a.587.587 0 00-.595.578v10.176c0 .317.265.578.595.578h13.894a.587.587 0 00.595-.578V.578A.59.59 0 0025.466 0zm-.595 1.156V1.6H12.168v-.445h12.705zm-12.704 9.02V2.753h12.705v7.423H12.167z"/><path d="M13.242 7.967h5.883a.587.587 0 00.595-.578V3.943a.587.587 0 00-.595-.578h-5.883a.587.587 0 00-.595.578v3.446a.59.59 0 00.595.578zm.594-3.45h4.695V6.81h-4.694V4.516zM23.45 3.45h-2.594a.587.587 0 00-.594.578c0 .317.264.578.594.578h2.594a.587.587 0 00.595-.578.584.584 0 00-.595-.578zm-2.594 2.835h1.56a.587.587 0 00.594-.578.587.587 0 00-.595-.578h-1.559a.587.587 0 00-.594.578c0 .32.264.578.594.578zm0 1.682h2.334a.587.587 0 00.595-.578.587.587 0 00-.595-.578h-2.334a.587.587 0 00-.594.578c0 .317.264.578.594.578zm2.594.445H13.33a.587.587 0 00-.595.578c0 .317.265.578.595.578h10.124a.587.587 0 00.595-.578.59.59 0 00-.6-.578z"/><path d="M21.34 11.777a.587.587 0 00-.594.578v1.121h-19.5V3.079a.43.43 0 01.436-.424h8.037a.587.587 0 00.594-.578.584.584 0 00-.594-.578H1.677c-.894.005-1.62.71-1.62 1.58V16.43c0 .87.726 1.576 1.62 1.576h5.228l-.45 2.838H4.91a.587.587 0 00-.595.578c0 .317.264.578.595.578h12.159a.587.587 0 00.594-.578.587.587 0 00-.595-.578h-1.545l-.45-2.838h5.228c.894 0 1.62-.707 1.62-1.576v-4.075c.014-.321-.255-.578-.58-.578zm-7.01 9.067H7.657l.449-2.838h5.773l.45 2.838zm5.98-3.99H1.677a.431.431 0 01-.436-.424v-1.802h19.5v1.802a.422.422 0 01-.431.424z"/></g><defs><clipPath id="clip0"><path fill="#fff" transform="translate(.057)" d="M0 0h26v22H0z"/></clipPath></defs></svg>