<svg width="28" height="28" fill="none" xmlns="http://www.w3.org/2000/svg"><path d="M15.072 17.88L13.5 16.637a.578.578 0 10-.715.904l.06.047a3.607 3.607 0 01-1.468-5.993.576.576 0 00-.815-.815 4.758 4.758 0 002.582 8.057l-.36.285a.577.577 0 10.715.904l1.573-1.243a.577.577 0 000-.904z" fill="#0A9F30"/><path d="M13.928 6.39a7.77 7.77 0 107.77 7.769 7.778 7.778 0 00-7.77-7.77zm0 14.386a6.616 6.616 0 116.616-6.617 6.624 6.624 0 01-6.616 6.617z" fill="#0A9F30"/><path d="M26.635 11.845H24.35a10.526 10.526 0 00-1.417-3.418l1.617-1.615a.576.576 0 000-.815l-2.458-2.458a.577.577 0 00-.815 0l-1.616 1.615a10.522 10.522 0 00-3.418-1.417V1.453a.578.578 0 00-.576-.577H12.19a.576.576 0 00-.577.577v2.285a10.522 10.522 0 00-3.417 1.416L6.582 3.538a.577.577 0 00-.815 0L3.309 5.995a.576.576 0 000 .816l1.615 1.615a10.526 10.526 0 00-1.417 3.418H1.222a.574.574 0 00-.576.577v3.476a.576.576 0 00.576.576h2.285a10.527 10.527 0 001.417 3.418l-1.616 1.617a.577.577 0 000 .815l2.457 2.457a.576.576 0 00.815 0l1.616-1.616a10.52 10.52 0 003.418 1.417v2.285a.578.578 0 00.576.576h3.476a.578.578 0 00.577-.576V24.58a10.523 10.523 0 003.418-1.417l1.616 1.616a.576.576 0 00.815 0l2.458-2.457a.576.576 0 000-.816l-1.616-1.615a10.525 10.525 0 001.416-3.418h2.285a.574.574 0 00.577-.577V12.42a.579.579 0 00-.577-.576zm-.576 3.475h-2.183a.576.576 0 00-.568.478 9.4 9.4 0 01-1.589 3.834.576.576 0 00.064.74l1.544 1.543-1.642 1.643-1.544-1.544a.577.577 0 00-.74-.064 9.405 9.405 0 01-3.833 1.588.576.576 0 00-.478.568v2.183h-2.322v-2.183a.577.577 0 00-.479-.568 9.404 9.404 0 01-3.833-1.588.577.577 0 00-.74.064l-1.544 1.544-1.642-1.643 1.544-1.544a.576.576 0 00.064-.74 9.4 9.4 0 01-1.588-3.833.577.577 0 00-.568-.478H1.799v-2.322h2.183a.576.576 0 00.568-.478 9.4 9.4 0 011.588-3.834.577.577 0 00-.064-.74L4.53 6.404l1.642-1.642 1.545 1.543a.576.576 0 00.74.064 9.404 9.404 0 013.832-1.588.576.576 0 00.479-.568V2.029h2.322v2.183a.576.576 0 00.478.568c1.38.237 2.69.78 3.833 1.588a.576.576 0 00.74-.064l1.544-1.543 1.642 1.642-1.544 1.544a.576.576 0 00-.064.74 9.4 9.4 0 011.589 3.833.576.576 0 00.568.478h2.183v2.322z" fill="#0A9F30"/><path d="M14.713 9.468l.36-.285a.577.577 0 10-.716-.904l-1.572 1.243a.576.576 0 000 .904l1.572 1.243a.578.578 0 10.715-.904l-.06-.047a3.61 3.61 0 011.467 5.993.576.576 0 10.816.815 4.756 4.756 0 00-2.583-8.058z" fill="#0A9F30"/></svg>