<svg width="29" height="27" fill="none" xmlns="http://www.w3.org/2000/svg"><g clip-path="url(#clip0)" fill="#0A9F30"><path d="M11.558 21.365a.699.699 0 00.703-.695c0-1.1.906-1.996 2.02-1.996 1.114 0 2.02.896 2.02 1.996a.7.7 0 00.702.695c.39 0 .703-.309.703-.695 0-1.63-1.171-2.989-2.723-3.313v-3.25a.7.7 0 00-.702-.695.696.696 0 00-.703.694v3.251c-1.551.325-2.723 1.683-2.723 3.313a.7.7 0 00.703.695z"/><path d="M27.573 22.372h-1.405V11.698c0-3.19-2.124-3.859-3.905-3.859h-4.617V5.823c0-2.789-2.821-4.702-2.982-4.81-.235-.155-.578-.134-.818.025-.12.083-2.94 1.996-2.94 4.78v2.016h-4.05c-2.723 0-4.477 1.513-4.477 3.858v10.675H.973a.7.7 0 00-.702.695v1.29c0 1.205 1.14 2.552 2.67 2.552h23.086c1.54 0 2.243-1.322 2.243-2.551v-1.291a.69.69 0 00-.697-.69zm-.698 1.986c0 .118-.02 1.168-.838 1.168H2.951c-.723 0-1.265-.71-1.265-1.168v-.597h1.406a.7.7 0 00.703-.694v-11.37c0-1.568 1.119-2.474 3.076-2.474h4.05v1.456c0 .077-.172.278-.323.453-.573.668-1.437 1.682-1.437 4.146a.7.7 0 00.578.684c.136.026.302.041.484.041.942 0 2.384-.396 3.243-1.95a.691.691 0 00-.28-.94.707.707 0 00-.953.277c-.474.854-1.15 1.127-1.64 1.204.125-1.446.645-2.058 1.072-2.557.323-.375.65-.766.65-1.348V5.823c0-1.533 1.297-2.804 1.969-3.36.65.535 1.962 1.806 1.962 3.36v4.856c0 .586.333.972.65 1.348.427.504.948 1.111 1.073 2.557-.49-.078-1.171-.35-1.64-1.2a.711.711 0 00-.952-.277.696.696 0 00-.281.942c1.025 1.857 2.889 2.063 3.727 1.913a.698.698 0 00.578-.684c0-2.464-.865-3.472-1.432-4.141-.151-.175-.323-.376-.323-.458v-1.45h4.617c1.801 0 2.504.694 2.504 2.474v11.369a.7.7 0 00.703.694h1.405v.592z"/><path d="M22.42 22.378h-5.267a.7.7 0 00-.703.68h-4.346a.7.7 0 00-.703-.68H6.138a.7.7 0 00-.702.695c0 .38.312.694.702.694h4.565a.7.7 0 00.703.68h5.747a.7.7 0 00.703-.68h4.565a.699.699 0 00.703-.694.699.699 0 00-.703-.695zM8.36 21.365a.699.699 0 00.704-.695c0-.674.406-1.27 1.036-1.528a.693.693 0 00.385-.905.706.706 0 00-.916-.38 3.026 3.026 0 00-1.91 2.808.7.7 0 00.702.7zm10.094-2.223a1.65 1.65 0 011.041 1.528.7.7 0 00.703.695.699.699 0 00.703-.695c0-1.24-.75-2.34-1.91-2.814a.704.704 0 00-.917.376.69.69 0 00.38.91z"/></g><defs><clipPath id="clip0"><path fill="#fff" transform="translate(.277 .91)" d="M0 0h28v26H0z"/></clipPath></defs></svg>