<svg width="39" height="33" fill="none" xmlns="http://www.w3.org/2000/svg"><path opacity=".25" d="M15.5.31l3.49 4.453C13.014 9.858 9.945 13.97 9.784 17.1c4.614 1.083 6.921 3.69 6.921 7.823 0 2.247-.782 4.113-2.347 5.597-1.524 1.444-3.33 2.166-5.416 2.166-2.287 0-4.193-.882-5.717-2.648C1.74 28.273.998 26.026.998 23.298.997 15.314 5.832 7.652 15.5.31zm19.378 0l3.551 4.453c-6.018 5.095-9.107 9.207-9.268 12.337 4.614 1.083 6.921 3.69 6.921 7.823 0 2.247-.762 4.113-2.287 5.597-1.524 1.444-3.33 2.166-5.416 2.166-2.407 0-4.333-.902-5.777-2.708-1.445-1.805-2.167-4.032-2.167-6.68 0-7.703 4.815-15.366 14.443-22.988z" fill="#0A9F30"/></svg>