<svg width="33" height="20" fill="none" xmlns="http://www.w3.org/2000/svg"><path d="M31.493 8.373l-7.888-5.024a1.323 1.323 0 00-1.84.412 1.35 1.35 0 00.409 1.851l6.198 3.952-6.123 4.309a1.331 1.331 0 00-.323 1.862 1.336 1.336 0 001.862.335l7.759-5.467a1.341 1.341 0 00-.054-2.23zM10.853 3.76a1.323 1.323 0 00-1.84-.41L1.124 8.372A1.373 1.373 0 00.5 9.477c-.01.444.205.877.57 1.126l7.76 5.467c.236.163.495.238.764.238.42 0 .839-.194 1.097-.573.42-.607.28-1.44-.333-1.862l-6.123-4.31 6.198-3.95a1.355 1.355 0 00.42-1.852zm3.163 15.558c.581 0 1.12-.39 1.28-.974L19.882 1.93a1.351 1.351 0 00-.926-1.656 1.341 1.341 0 00-1.646.93L12.725 17.62c-.205.714.215 1.45.925 1.656.13.022.248.043.366.043z" fill="#0A9F30"/></svg>