<svg width="17" height="16" fill="none" xmlns="http://www.w3.org/2000/svg"><path d="M14.847 9.838l-.04-.039c-.041-.02-.833-.587-1.91-.352-.873.176-1.645.802-2.295 1.839-.568-.255-1.665-.822-3.006-1.996-1.523-1.408-2.254-2.581-2.58-3.188 1.057-.684 1.666-1.447 1.809-2.288.182-1.037-.427-1.78-.447-1.82l-.04-.039C3.33-.842 1.462.175 1.401.215a.28.28 0 00-.082.058C1.26.313.02 1.466 0 3.638c-.02 2.484 1.544 5.203 4.651 8.097.02.02.02.04.041.04 3.026 2.816 5.83 4.224 8.348 4.224h.284c2.255-.097 3.392-1.35 3.432-1.388a.27.27 0 00.061-.079c.041-.078 1.036-1.916-1.97-4.694zm-1.584 5.34c-2.295.078-5.037-1.291-7.941-3.951 0-.02-.02-.02-.02-.04C2.396 8.489.852 5.888.873 3.658c0-1.623.812-2.543.995-2.738.243-.098 1.604-.47 3.859 1.604.06.098.365.547.244 1.154-.122.665-.711 1.31-1.727 1.917a.406.406 0 00-.183.508c.203.49.853 1.721 2.417 3.286.02.04.04.078.082.098.142.137.284.274.446.391l.02.02c1.747 1.506 3.088 2.093 3.596 2.288.203.079.426 0 .528-.195.589-.998 1.218-1.585 1.909-1.741.63-.137 1.097.137 1.198.195 2.234 2.074 1.89 3.404 1.808 3.639-.183.215-1.117 1.017-2.803 1.095z" fill="#333"/></svg>