<svg width="25" height="33" fill="none" xmlns="http://www.w3.org/2000/svg"><path d="M22.267 5.433H2.733A2.713 2.713 0 010 2.716 2.713 2.713 0 012.733 0h19.534A2.713 2.713 0 0125 2.716a2.713 2.713 0 01-2.733 2.717zM2.733 1.409c-.709 0-1.215.603-1.215 1.307 0 .705.506 1.308 1.215 1.308h19.534c.709 0 1.316-.603 1.316-1.308 0-.704-.607-1.307-1.316-1.307H2.733z" fill="#0A9F30"/><path d="M12.55 3.42a.69.69 0 01-.708-.704c-.101-.402.303-.704.708-.704a.69.69 0 01.709.704.69.69 0 01-.709.705zm-5.971 0a.69.69 0 01-.709-.704.69.69 0 01.709-.704.69.69 0 01.708.704.69.69 0 01-.708.705zm11.841 0a.69.69 0 01-.708-.704.69.69 0 01.708-.704.69.69 0 01.709.704.69.69 0 01-.709.705zm2.633 5.735H3.948a.69.69 0 01-.709-.704.69.69 0 01.709-.704h17.105a.69.69 0 01.709.704.69.69 0 01-.709.704zm-1.62 3.522H5.567a.69.69 0 01-.709-.704.69.69 0 01.709-.705h13.866a.69.69 0 01.709.705.69.69 0 01-.709.704zm0 3.421H5.567a.69.69 0 01-.709-.705.69.69 0 01.709-.704h13.866a.69.69 0 01.709.704.69.69 0 01-.709.705zm0 3.521H5.567a.69.69 0 01-.709-.704.69.69 0 01.709-.705h13.866a.69.69 0 01.709.705.69.69 0 01-.709.704zm0 3.521H5.567a.69.69 0 01-.709-.704.69.69 0 01.709-.704h13.866a.69.69 0 01.709.704.69.69 0 01-.709.704zm-6.781 3.421H5.567a.69.69 0 01-.709-.704.69.69 0 01.709-.704h7.085a.69.69 0 01.708.704.69.69 0 01-.708.704zm0 3.521H5.567a.69.69 0 01-.709-.704.69.69 0 01.709-.704h7.085a.69.69 0 01.708.704.69.69 0 01-.708.704z" fill="#0A9F30"/><path d="M21.356 33H3.644A3.618 3.618 0 010 29.378V2.818a.69.69 0 01.709-.705.69.69 0 01.708.704v26.561c0 1.207 1.012 2.213 2.227 2.213h17.814c1.214 0 2.226-1.006 2.226-2.213V6.942a.69.69 0 01.709-.704.69.69 0 01.708.704v22.436C25 31.39 23.381 33 21.356 33z" fill="#0A9F30"/><path d="M15.79 29.982c-.102 0-.203 0-.304-.1-.304-.102-.506-.403-.405-.806l.709-3.924c.1-.402.404-.704.81-.603.404.1.708.402.606.805l-.202 1.308.911-1.006a.791.791 0 01.81-.202c.303.1.506.403.506.705v.704l2.024-1.811c.304-.302.709-.302 1.012 0 .304.302.304.704 0 1.006l-3.239 3.018c-.202.201-.506.201-.81.1-.303-.1-.404-.402-.404-.703v-.403l-1.215 1.409c-.405.402-.607.503-.81.503z" fill="#0A9F30"/></svg>