<svg width="42" height="21" fill="none" xmlns="http://www.w3.org/2000/svg"><path d="M39.309 5.032c-.39 0-.78.104-1.134.28v-.35c0-1.363-1.133-2.516-2.585-2.516-.39 0-.779.105-1.133.28v-.21C34.492 1.118 33.359 0 31.943 0c-1.381 0-2.55 1.118-2.55 2.516v5.031H12.572V2.516C12.572 1.118 11.403 0 9.987 0c-1.382 0-2.55 1.118-2.55 2.516v.244a2.616 2.616 0 00-1.169-.28c-1.381 0-2.55 1.119-2.55 2.517v.35a2.616 2.616 0 00-1.168-.28C1.169 5.067 0 6.185 0 7.582v5.836c0 1.362 1.133 2.515 2.55 2.515h.035c.39 0 .78-.104 1.133-.28v.35c0 1.363 1.134 2.516 2.55 2.516h.036c.39 0 .779-.105 1.133-.28v.245C7.437 19.847 8.57 21 9.987 21h.035c1.381 0 2.55-1.118 2.55-2.516v-5.94h16.856v5.835c0 1.363 1.134 2.516 2.55 2.516h.035c1.382 0 2.55-1.118 2.55-2.516v-.21c.354.175.709.28 1.133.28h.036c1.381 0 2.55-1.118 2.55-2.516v-.349c.354.175.708.28 1.133.28h.035c1.381 0 2.55-1.119 2.55-2.516v-5.8c-.106-1.398-1.24-2.516-2.691-2.516zM2.656 14.466h-.035c-.638 0-1.134-.49-1.134-1.083V7.547c0-.594.496-1.118 1.169-1.118.602 0 1.133.49 1.133 1.118v5.836a1.152 1.152 0 01-1.133 1.083zm3.683 2.586h-.035c-.602 0-1.134-.49-1.134-1.119V4.997c0-.594.496-1.118 1.169-1.118.602 0 1.133.489 1.133 1.118v10.971c-.035.56-.531 1.084-1.133 1.084zm4.816 1.362c0 .594-.496 1.118-1.133 1.118h-.035c-.603 0-1.134-.489-1.134-1.118V2.516c0-.594.496-1.118 1.169-1.118.602 0 1.133.489 1.133 1.118v15.898zm18.238-7.268H12.678V8.91h16.715v2.236zm3.683 7.268c0 .594-.496 1.118-1.133 1.118-.602 0-1.134-.489-1.134-1.118V2.516c0-.594.496-1.118 1.17-1.118.601 0 1.132.489 1.132 1.118v15.898h-.035zm3.718-2.48c0 .594-.495 1.118-1.133 1.118h-.035c-.602 0-1.134-.49-1.134-1.119V4.962c0-.594.496-1.118 1.169-1.118.602 0 1.133.489 1.133 1.118v10.971zm3.683-2.551c0 .594-.496 1.118-1.133 1.118h-.035c-.602 0-1.134-.49-1.134-1.118V7.547c0-.594.496-1.118 1.169-1.118.602 0 1.133.49 1.133 1.118v5.836z" fill="#0A9F30"/></svg>