<svg width="39" height="35" fill="none" xmlns="http://www.w3.org/2000/svg"><path d="M35.314 35H3.686C1.665 35 0 33.377 0 31.407V10.083C0 8.113 1.665 6.49 3.686 6.49h31.51c2.02 0 3.685 1.623 3.685 3.593v21.324C39 33.377 37.335 35 35.314 35zM3.686 8.113c-1.07 0-2.021.927-2.021 1.97v21.324c0 1.043.95 1.97 2.021 1.97h31.51c1.07 0 2.02-.927 2.02-1.97V10.083c0-1.043-.95-1.97-2.02-1.97H3.685zm24.137-4.057H11.177c-.476 0-.832-.347-.832-.811V2.086c0-1.159.95-2.086 2.14-2.086h14.03c1.19 0 2.14.927 2.14 2.086v1.159c0 .348-.356.811-.832.811zM12.128 2.318h14.863v-.232c0-.232-.238-.463-.476-.463h-14.03c-.238 0-.476.231-.476.463v.232h.12z" fill="#0A9F30"/><path d="M27.823 8.113c-.475 0-.832-.348-.832-.812V2.897c0-.463.357-.81.832-.81.476 0 .833.347.833.81v4.404c0 .464-.357.812-.832.812zm-16.646 0c-.357 0-.832-.348-.832-.812V2.897c0-.463.356-.81.832-.81s.832.347.832.81v4.404c.12.464-.356.812-.832.812zm22.473 4.52H5.35c-.475 0-.831-.348-.831-.812 0-.463.356-.811.832-.811H33.65c.475 0 .832.348.832.811 0 .464-.357.812-.832.812zm0 17.847H5.35c-.475 0-.831-.348-.831-.811 0-.464.356-.811.832-.811H33.65c.475 0 .832.347.832.81 0 .465-.357.812-.832.812zM19.5 26.424c-2.26 0-4.043-1.507-4.043-3.245 0-.464.357-.811.832-.811.476 0 .833.347.833.81 0 .928 1.07 1.623 2.378 1.623s2.378-.695 2.378-1.622c0-.464-.476-1.623-2.378-1.623-2.735 0-4.043-1.97-4.043-3.245 0-1.854 1.784-3.245 4.043-3.245 2.259 0 4.042 1.507 4.042 3.245 0 .464-.356.811-.832.811s-.832-.347-.832-.81c0-.928-1.07-1.623-2.378-1.623s-2.378.695-2.378 1.622c0 .58.594 1.623 2.378 1.623 2.972 0 4.042 1.97 4.042 3.245 0 1.854-1.783 3.245-4.042 3.245z" fill="#0A9F30"/><path d="M19.5 16.225c-.476 0-.833-.348-.833-.811v-.695c0-.464.357-.812.832-.812.476 0 .833.348.833.812v.695c0 .463-.357.811-.833.811zm0 11.474c-.476 0-.833-.348-.833-.812v-.695c0-.464.357-.811.832-.811.476 0 .833.347.833.811v.695c0 .348-.357.812-.833.812z" fill="#0A9F30"/><path d="M19.5 19.006c-.476 0-.833-.347-.833-.81v-1.392c0-.463.357-.81.832-.81.476 0 .833.347.833.81v1.391c0 .464-.357.811-.833.811zm0 6.491c-.476 0-.833-.348-.833-.812v-1.39c0-.464.357-.812.832-.812.476 0 .833.348.833.811v1.391c0 .464-.357.812-.833.812zm-7.729-3.941H7.73c-.476 0-.833-.347-.833-.81 0-.464.357-.812.833-.812h4.042c.476 0 .833.348.833.811 0 .464-.357.811-.832.811zm19.5 0H27.23c-.476 0-.832-.347-.832-.81 0-.464.356-.812.832-.812h4.043c.475 0 .832.348.832.811 0 .464-.357.811-.832.811z" fill="#0A9F30"/></svg>