<svg width="35" height="34" fill="none" xmlns="http://www.w3.org/2000/svg"><path d="M17.141 34C7.691 34 0 26.373 0 17 0 7.627 7.69 0 17.141 0c9.451 0 17.142 7.627 17.142 17 0 9.373-7.691 17-17.142 17zm0-32.17C8.7 1.83 1.846 8.64 1.846 17c0 8.372 6.866 15.17 15.295 15.17 8.43 0 15.296-6.81 15.296-15.17 0-8.372-6.866-15.17-15.296-15.17z" fill="#0A9F30"/><path d="M17.142 5.723a.926.926 0 01-.923-.915V4.26c0-.5.418-.915.923-.915.504 0 .923.415.923.915v.55a.918.918 0 01-.923.914zm0 24.982a.926.926 0 01-.923-.915v-.55c0-.5.418-.915.923-.915.504 0 .923.415.923.915v.55c0 .5-.419.915-.923.915zM4.823 17.94H4.27a.926.926 0 01-.923-.916c0-.5.418-.915.923-.915h.553c.505 0 .923.415.923.915a.918.918 0 01-.923.916zm25.177 0h-.554a.926.926 0 01-.923-.916c0-.5.419-.915.923-.915H30c.505 0 .923.415.923.915a.91.91 0 01-.923.916zM25.842 9.3a.917.917 0 01-.652-1.563l.393-.39a.934.934 0 011.305 0 .915.915 0 010 1.293l-.394.39a.877.877 0 01-.652.27zM8.035 26.97a.916.916 0 01-.652-1.561l.394-.391a.934.934 0 011.304 0 .915.915 0 010 1.294l-.394.39a.948.948 0 01-.652.269zM8.429 9.3a.917.917 0 01-.652-.27l-.394-.39a.915.915 0 010-1.293.934.934 0 011.304 0l.394.39A.915.915 0 018.429 9.3zm17.806 17.67a.917.917 0 01-.652-.268l-.393-.39a.915.915 0 010-1.294.934.934 0 011.304 0l.394.39a.915.915 0 010 1.294.97.97 0 01-.653.269zm-9.093-9.03a.932.932 0 01-.357-.074.916.916 0 01-.566-.842V7.97c0-.5.418-.915.923-.915.504 0 .923.415.923.915v6.846l2.313-2.294a.934.934 0 011.304 0 .916.916 0 010 1.294l-3.888 3.856a.917.917 0 01-.652.269z" fill="#0A9F30"/></svg>