<svg width="37" height="37" fill="none" xmlns="http://www.w3.org/2000/svg"><path d="M19.339 18.688a.7.7 0 01-.45-.174c-.27-.262-.27-.61 0-.872l2.699-2.614c.27-.262.63-.262.9 0 .27.261.27.61 0 .871l-2.7 2.615c-.09.174-.27.174-.45.174z" fill="#0A9F30"/><path d="M22.937 16.335c-.45 0-.9-.174-1.26-.523a1.695 1.695 0 01-.54-1.22c0-.436.18-.871.54-1.22l2.7-2.614c.629-.61 1.799-.61 2.518 0 .72.697.72 1.743 0 2.44l-2.699 2.614c-.36.349-.81.523-1.26.523zm2.699-4.793c-.09 0-.27.087-.36.174l-2.699 2.615c-.09.087-.18.174-.18.348 0 .087.09.262.18.349.18.174.54.174.72 0l2.699-2.615a.518.518 0 000-.697c-.09-.087-.27-.174-.36-.174z" fill="#0A9F30"/><path d="M26.086 12.152a.699.699 0 01-.45-.175c-.27-.26-.27-.61 0-.871l5.308-5.142c.27-.261.63-.261.9 0 .27.262.27.61 0 .872l-5.308 5.141c-.09.175-.27.175-.45.175zm7.197-6.885a.699.699 0 01-.45-.174c-.27-.262-.27-.61 0-.872l.54-.523c.27-.261.63-.261.9 0 .27.262.27.61 0 .872l-.54.523c-.18.087-.36.174-.45.174z" fill="#0A9F30"/><path d="M30.404 9.624c-.54 0-1.08-.087-1.619-.174a.901.901 0 01-.45-.523c-.54-2.091 0-4.357 1.62-5.926.18-.087.36-.174.54-.174 2.428.261 4.317 2.091 4.587 4.444 0 .175 0 .349-.18.523a6.509 6.509 0 01-4.498 1.83zm-.9-1.394c1.53.349 3.15-.087 4.229-1.133-.27-1.569-1.53-2.702-3.149-3.05a5.083 5.083 0 00-1.08 4.183zm-9.831 17.638c-.505.068-1.124.052-1.641.022-4.357-.31-7.52-3.964-7.166-8.193.356-4.228 4.15-7.327 8.508-7.018.934.073 1.781.258 2.654.638.33.155.483.532.334.95-.162.321-.553.473-.983.332a5.037 5.037 0 00-2.225-.497c-3.523-.222-6.678 2.293-6.936 5.712a6.221 6.221 0 005.831 6.68c3.523.222 6.564-2.377 6.924-5.81.11-.711.004-1.493-.189-2.164a.636.636 0 01.5-.864c.39-.152.834.087.887.478.219.866.337 1.746.254 2.653-.22 3.713-3.12 6.592-6.752 7.08z" fill="#0A9F30"/><path d="M20.752 33.884C11.872 35.08 3.658 29.02 2.5 20.417 1.34 11.814 7.66 3.797 16.54 2.6c4.239-.57 8.385.464 11.794 2.891.101-.013.114.084.228.169l.229.168c.342.252.294.657.03.991-.263.334-.68.29-1.022.038-.013-.098-.114-.084-.228-.168l-.228-.168C24.39 4.43 20.559 3.453 16.724 3.969 8.65 5.056 2.86 12.406 3.912 20.227c1.053 7.82 8.582 13.376 16.656 12.289 8.073-1.088 13.878-8.34 12.811-16.258a14.134 14.134 0 00-2.75-6.696c-.242-.266-.207-.769.17-1.019.277-.236.794-.206 1.049.158 1.628 2.17 2.69 4.714 3.045 7.353 1.058 8.617-5.26 16.634-14.14 17.83z" fill="#0A9F30"/><path d="M20.212 29.876c-6.56.883-12.62-3.675-13.475-10.03-.856-6.354 3.795-12.256 10.355-13.14 3.229-.434 6.314.345 8.937 2.28a.742.742 0 01.268.462c.053.391-.21.725-.614.78-.202.027-.417-.044-.645-.212C22.769 8.43 20 7.708 17.276 8.076c-5.752.774-9.876 6.007-9.126 11.58.75 5.572 6.112 9.528 11.864 8.754 5.753-.775 9.877-6.009 9.126-11.581a10.145 10.145 0 00-1.334-3.802c-.254-.364-.105-.782.286-.934.377-.25.807-.109.96.269a11.666 11.666 0 011.514 4.374c.843 6.257-3.795 12.257-10.354 13.14z" fill="#0A9F30"/><path d="M19.093 21.566c-1.917.259-3.629-1.004-3.879-2.861-.25-1.858 1.066-3.528 2.984-3.786 1.917-.259 3.628 1.004 3.878 2.861.25 1.858-1.066 3.528-2.983 3.786zm-.71-5.279c-1.111.15-1.9 1.152-1.756 2.227.145 1.076 1.172 1.833 2.282 1.684 1.11-.15 1.9-1.152 1.755-2.227-.145-1.076-1.172-1.833-2.282-1.684z" fill="#0A9F30"/></svg>