<svg width="37" height="33" fill="none" xmlns="http://www.w3.org/2000/svg"><path d="M16.246 32.509a16.103 16.103 0 01-11.484-4.764A16.12 16.12 0 010 16.255c0-4.341 1.686-8.421 4.762-11.49A16.103 16.103 0 0116.246 0 16.255 16.255 0 0130.47 8.398a.56.56 0 01-.216.759.559.559 0 01-.757-.216 15.143 15.143 0 00-13.252-7.826c-8.342 0-15.132 6.793-15.132 15.14 0 8.346 6.79 15.139 15.132 15.139a15.03 15.03 0 009.248-3.151.562.562 0 01.78.096.562.562 0 01-.097.78 16.105 16.105 0 01-9.931 3.39z" fill="#0A9F30"/><path d="M16.246 32.509c-2.333 0-4.502-1.74-6.092-4.905-1.53-3.04-2.377-7.076-2.377-11.35 0-4.273.84-8.309 2.377-11.349C11.752 1.747 13.914 0 16.246 0c2.02 0 3.966 1.353 5.482 3.805a.551.551 0 01-.186.766.55.55 0 01-.765-.186c-1.3-2.11-2.912-3.278-4.531-3.278-1.895 0-3.7 1.524-5.096 4.289-1.456 2.891-2.258 6.74-2.258 10.851 0 4.11.802 7.96 2.258 10.851 1.396 2.765 3.201 4.289 5.096 4.289 1.062 0 2.302-.684 3.402-1.873 1.166-1.264 2.065-2.966 2.533-4.787a.556.556 0 011.077.275c-1.085 4.214-4.167 7.507-7.012 7.507z" fill="#0A9F30"/><path d="M4.606 27.336a.573.573 0 01-.49-.282.56.56 0 01.215-.758c3.053-1.703 7.391-2.676 11.908-2.676 2.295 0 4.516.238 6.596.72.297.068.49.365.416.67a.551.551 0 01-.669.416c-1.998-.46-4.137-.691-6.35-.691-4.332 0-8.476.921-11.366 2.534a.502.502 0 01-.26.067zM11.395 8.51c-.03 0-.06 0-.09-.008-2.659-.438-5.073-1.226-6.967-2.289a.56.56 0 01-.216-.758.559.559 0 01.758-.215c1.79.996 4.07 1.746 6.604 2.163a.558.558 0 01-.09 1.107z" fill="#0A9F30"/><path d="M16.246 32.509a.561.561 0 01-.557-.558V21.398c0-.305.252-.558.557-.558.304 0 .557.253.557.558V31.95a.561.561 0 01-.557.558zm0-28.027a.561.561 0 01-.557-.558V.557c0-.304.252-.557.557-.557.304 0 .557.253.557.557v3.367a.556.556 0 01-.557.558zm-4.851 12.33H.557A.561.561 0 010 16.254c0-.304.253-.557.557-.557h10.838c.305 0 .557.253.557.557a.561.561 0 01-.557.558zm11.009 2.898h-6.723a2.29 2.29 0 01-2.287-2.289v-9.09a2.29 2.29 0 012.287-2.289h9.093a2.29 2.29 0 012.288 2.29v2.006a.561.561 0 01-.558.558.561.561 0 01-.557-.558V8.332c0-.647-.527-1.175-1.173-1.175H15.68c-.646 0-1.173.528-1.173 1.175v9.097c0 .646.527 1.174 1.174 1.174h6.722c.305 0 .557.253.557.557a.56.56 0 01-.557.55z" fill="#0A9F30"/><path d="M26.764 27.21a.519.519 0 01-.23-.053.554.554 0 01-.327-.505V24.92h-.587a2.29 2.29 0 01-2.288-2.289v-9.09a2.29 2.29 0 012.288-2.289h9.092A2.29 2.29 0 0137 13.542v9.097a2.29 2.29 0 01-2.288 2.289H29.58l-2.444 2.148a.585.585 0 01-.371.133zM25.62 12.366c-.646 0-1.174.528-1.174 1.175v9.097c0 .646.528 1.174 1.174 1.174h1.144c.304 0 .557.253.557.557v1.048L29 23.94a.56.56 0 01.364-.14h5.34c.647 0 1.174-.529 1.174-1.175v-9.082c0-.647-.527-1.175-1.173-1.175H25.62zM24.06 11h-7.703a.561.561 0 01-.557-.558c0-.304.252-.557.557-.557h7.703a.557.557 0 110 1.115z" fill="#0A9F30"/><path d="M20.205 11a.561.561 0 01-.557-.558V8.963c0-.304.252-.557.557-.557.304 0 .557.253.557.557v1.48a.552.552 0 01-.557.557zm-3.506 6.273a.552.552 0 01-.52-.357.554.554 0 01.32-.72c4.776-1.837 5.37-5.65 5.377-5.687a.566.566 0 01.632-.475.56.56 0 01.475.631c-.03.186-.698 4.497-6.076 6.57a.537.537 0 01-.208.038z" fill="#0A9F30"/><path d="M23.614 17.273a.637.637 0 01-.2-.037c-3.254-1.257-4.888-3.59-5.311-4.281a.551.551 0 01.185-.766.55.55 0 01.765.186c.38.61 1.835 2.698 4.762 3.82.29.112.43.431.32.721a.56.56 0 01-.52.357zM32.885 22a.563.563 0 01-.52-.35l-2.206-5.44-2.214 5.44a.558.558 0 11-1.033-.423l2.727-6.712a.557.557 0 01.512-.35c.23 0 .431.135.513.35l2.726 6.712a.56.56 0 01-.305.728.441.441 0 01-.2.045z" fill="#0A9F30"/><path d="M31.934 19.814h-3.61a.561.561 0 01-.557-.557.56.56 0 01.557-.557h3.61a.556.556 0 110 1.115z" fill="#0A9F30"/></svg>