<svg width="726" height="100" viewBox="0 0 726 100" fill="none" xmlns="http://www.w3.org/2000/svg">
<g filter="url(#filter0_d)">
<path d="M63.3377 18V74H49.0177V31.84H34.4577V74H20.1377V18H63.3377Z" fill="white"/>
<path d="M93.9289 18C99.5823 18 104.329 19.84 108.169 23.52C112.009 27.2 113.929 31.8933 113.929 37.6C113.929 43.3067 112.009 48 108.169 51.68C104.329 55.36 99.5823 57.2 93.9289 57.2H86.4889V74H72.1689V18H93.9289ZM93.9289 43.6C95.5289 43.6 96.8623 43.04 97.9289 41.92C99.049 40.8 99.6089 39.36 99.6089 37.6C99.6089 35.84 99.049 34.4267 97.9289 33.36C96.8623 32.24 95.5289 31.68 93.9289 31.68H86.4889V43.6H93.9289Z" fill="white"/>
<path d="M167.435 66.8C161.781 72.4 154.848 75.2 146.635 75.2C138.421 75.2 131.461 72.4 125.755 66.8C120.101 61.1467 117.275 54.2133 117.275 46C117.275 37.7867 120.101 30.88 125.755 25.28C131.461 19.6267 138.421 16.8 146.635 16.8C154.848 16.8 161.781 19.6267 167.435 25.28C173.141 30.88 175.995 37.7867 175.995 46C175.995 54.2133 173.141 61.1467 167.435 66.8ZM135.835 56.96C138.715 59.7867 142.315 61.2 146.635 61.2C150.955 61.2 154.555 59.7867 157.435 56.96C160.315 54.08 161.755 50.4267 161.755 46C161.755 41.5733 160.315 37.9467 157.435 35.12C154.555 32.24 150.955 30.8 146.635 30.8C142.315 30.8 138.715 32.24 135.835 35.12C132.955 37.9467 131.515 41.5733 131.515 46C131.515 50.4267 132.955 54.08 135.835 56.96Z" fill="white"/>
<path d="M215.758 18V31.84H196.958V74H182.638V18H215.758Z" fill="white"/>
<path d="M242.366 18C248.02 18 252.766 19.84 256.606 23.52C260.446 27.2 262.366 31.8933 262.366 37.6C262.366 43.3067 260.446 48 256.606 51.68C252.766 55.36 248.02 57.2 242.366 57.2H234.926V74H220.606V18H242.366ZM242.366 43.6C243.966 43.6 245.3 43.04 246.366 41.92C247.486 40.8 248.046 39.36 248.046 37.6C248.046 35.84 247.486 34.4267 246.366 33.36C245.3 32.24 243.966 31.68 242.366 31.68H234.926V43.6H242.366Z" fill="white"/>
<path d="M296.876 74L294.476 65.92H275.836L273.436 74H257.916L276.396 18H293.836L312.316 74H296.876ZM279.516 53.6H290.796L285.116 34.56L279.516 53.6Z" fill="white"/>
<path d="M373.508 18V74H359.268V43.84L345.668 66.32H344.228L330.708 43.92V74H316.388V18H330.708L344.948 41.92L359.268 18H373.508Z" fill="white"/>
<path d="M439.523 18V74H425.283V43.84L411.683 66.32H410.243L396.723 43.92V74H382.403V18H396.723L410.963 41.92L425.283 18H439.523Z" fill="white"/>
<path d="M479.299 74V45.84L459.539 74H448.419V18H462.739V46.16L482.499 18H493.539V74H479.299Z" fill="white"/>
<path d="M529.443 75.2C521.017 75.2 514.03 72.4267 508.483 66.88C502.99 61.28 500.243 54.32 500.243 46C500.243 37.68 502.99 30.7467 508.483 25.2C514.03 19.6 521.017 16.8 529.443 16.8C534.51 16.8 539.203 18 543.523 20.4C547.843 22.8 551.23 26.0267 553.683 30.08L541.283 37.2C540.217 35.2267 538.617 33.68 536.483 32.56C534.403 31.3867 532.057 30.8 529.443 30.8C524.963 30.8 521.337 32.2133 518.563 35.04C515.843 37.8133 514.483 41.4667 514.483 46C514.483 50.5333 515.843 54.2133 518.563 57.04C521.337 59.8133 524.963 61.2 529.443 61.2C532.057 61.2 534.403 60.64 536.483 59.52C538.617 58.3467 540.217 56.7467 541.283 54.72L553.683 61.92C551.23 66.0267 547.843 69.28 543.523 71.68C539.257 74.0267 534.563 75.2 529.443 75.2Z" fill="white"/>
<path d="M597.522 18V31.84H583.682V74H569.362V31.84H555.522V18H597.522Z" fill="white"/>
<path d="M647.903 66.8C642.25 72.4 635.317 75.2 627.103 75.2C618.89 75.2 611.93 72.4 606.223 66.8C600.57 61.1467 597.743 54.2133 597.743 46C597.743 37.7867 600.57 30.88 606.223 25.28C611.93 19.6267 618.89 16.8 627.103 16.8C635.317 16.8 642.25 19.6267 647.903 25.28C653.61 30.88 656.463 37.7867 656.463 46C656.463 54.2133 653.61 61.1467 647.903 66.8ZM616.303 56.96C619.183 59.7867 622.783 61.2 627.103 61.2C631.423 61.2 635.023 59.7867 637.903 56.96C640.783 54.08 642.223 50.4267 642.223 46C642.223 41.5733 640.783 37.9467 637.903 35.12C635.023 32.24 631.423 30.8 627.103 30.8C622.783 30.8 619.183 32.24 616.303 35.12C613.423 37.9467 611.983 41.5733 611.983 46C611.983 50.4267 613.423 54.08 616.303 56.96Z" fill="white"/>
<path d="M698.466 45.04C703.16 47.8133 705.506 52 705.506 57.6C705.506 62.56 703.8 66.5333 700.386 69.52C696.973 72.5067 692.413 74 686.706 74H663.106V18H685.186C690.786 18 695.266 19.44 698.626 22.32C701.986 25.1467 703.666 29.0133 703.666 33.92C703.666 38.6133 701.933 42.32 698.466 45.04ZM684.786 30.8H677.426V39.6H684.786C686.066 39.6 687.133 39.2267 687.986 38.48C688.893 37.68 689.346 36.5867 689.346 35.2C689.346 33.8667 688.92 32.8 688.066 32C687.213 31.2 686.12 30.8 684.786 30.8ZM686.306 61.2C687.746 61.2 688.92 60.7733 689.826 59.92C690.733 59.0133 691.186 57.8667 691.186 56.48C691.186 55.04 690.733 53.8933 689.826 53.04C688.92 52.1867 687.746 51.76 686.306 51.76H677.426V61.2H686.306Z" fill="white"/>
</g>
<defs>
<filter id="filter0_d" x="0.137695" y="0.799988" width="725.369" height="98.4" filterUnits="userSpaceOnUse" color-interpolation-filters="sRGB">
<feFlood flood-opacity="0" result="BackgroundImageFix"/>
<feColorMatrix in="SourceAlpha" type="matrix" values="0 0 0 0 0 0 0 0 0 0 0 0 0 0 0 0 0 0 127 0"/>
<feOffset dy="4"/>
<feGaussianBlur stdDeviation="10"/>
<feColorMatrix type="matrix" values="0 0 0 0 0.306548 0 0 0 0 0.929167 0 0 0 0 0.205191 0 0 0 0.7 0"/>
<feBlend mode="normal" in2="BackgroundImageFix" result="effect1_dropShadow"/>
<feBlend mode="normal" in="SourceGraphic" in2="effect1_dropShadow" result="shape"/>
</filter>
</defs>
</svg>
