<svg width="265" height="132" viewBox="0 0 265 132" fill="none" xmlns="http://www.w3.org/2000/svg">
<g filter="url(#filter0_d)">
<path d="M29.0844 24.8C31.2444 24.8 32.9844 25.41 34.3044 26.63C35.6244 27.83 36.2844 29.42 36.2844 31.4C36.2844 33.38 35.6244 34.98 34.3044 36.2C32.9844 37.4 31.2444 38 29.0844 38H20.9844V17H34.4844V21.62H25.7844V24.8H29.0844ZM29.0844 33.5C30.6844 33.5 31.4844 32.8 31.4844 31.4C31.4844 30 30.6844 29.3 29.0844 29.3H25.7844V33.5H29.0844Z" fill="#04BA16"/>
<path d="M49.025 17H53.825L47.765 31.82C45.985 36.16 43.045 38.22 38.945 38V33.5C40.885 33.68 42.285 32.99 43.145 31.43L36.425 17H41.225L45.335 26.18L49.025 17Z" fill="#04BA16"/>
<path d="M72.9155 38H67.4555L60.7355 28.28V38H55.9355V17H60.7355V26.12L67.1555 17H72.6155L65.5355 27.23L72.9155 38Z" fill="#04BA16"/>
<path d="M95.7148 17V38H90.9148V25.79L85.4848 34.7H84.9448L79.5148 25.79V38H74.7148V17H79.5148L85.2148 26.33L90.9148 17H95.7148Z" fill="#04BA16"/>
<path d="M104.124 33.38H112.524V38H99.3242V17H112.374V21.62H104.124V25.1H111.624V29.66H104.124V33.38Z" fill="#04BA16"/>
<path d="M132.212 38H126.752L120.032 28.28V38H115.232V17H120.032V26.12L126.452 17H131.912L124.832 27.23L132.212 38Z" fill="#04BA16"/>
<path d="M138.812 33.38H147.212V38H134.012V17H147.062V21.62H138.812V25.1H146.312V29.66H138.812V33.38Z" fill="#04BA16"/>
<path d="M157.87 17C159.93 17 161.67 17.7 163.09 19.1C164.51 20.5 165.22 22.2 165.22 24.2C165.22 26.2 164.51 27.9 163.09 29.3C161.67 30.7 159.93 31.4 157.87 31.4H154.72V38H149.92V17H157.87ZM157.87 26.9C158.61 26.9 159.22 26.64 159.7 26.12C160.18 25.6 160.42 24.96 160.42 24.2C160.42 23.44 160.18 22.8 159.7 22.28C159.22 21.76 158.61 21.5 157.87 21.5H154.72V26.9H157.87Z" fill="#04BA16"/>
<path d="M177.489 38.42C174.349 38.42 171.739 37.38 169.659 35.3C167.599 33.2 166.569 30.6 166.569 27.5C166.569 24.4 167.599 21.81 169.659 19.73C171.739 17.63 174.349 16.58 177.489 16.58C179.369 16.58 181.109 17.02 182.709 17.9C184.309 18.76 185.569 19.94 186.489 21.44L182.349 23.84C181.889 23.02 181.229 22.39 180.369 21.95C179.509 21.49 178.549 21.26 177.489 21.26C175.629 21.26 174.139 21.83 173.019 22.97C171.919 24.11 171.369 25.62 171.369 27.5C171.369 29.38 171.919 30.89 173.019 32.03C174.139 33.17 175.629 33.74 177.489 33.74C178.549 33.74 179.509 33.51 180.369 33.05C181.249 32.59 181.909 31.96 182.349 31.16L186.489 33.56C185.589 35.06 184.339 36.25 182.739 37.13C181.139 37.99 179.389 38.42 177.489 38.42Z" fill="#04BA16"/>
<path d="M205.718 38H200.258L193.538 28.28V38H188.738V17H193.538V26.12L199.958 17H205.418L198.338 27.23L205.718 38Z" fill="#04BA16"/>
<path d="M221.454 38L220.404 34.7H212.604L211.554 38H206.304L213.444 17H219.564L226.704 38H221.454ZM214.044 30.2H218.964L216.504 22.49L214.044 30.2Z" fill="#04BA16"/>
<path d="M243.937 17V38H239.137V31.1H237.607L233.137 38H227.737L232.657 30.5C231.377 29.96 230.337 29.12 229.537 27.98C228.737 26.82 228.337 25.56 228.337 24.2C228.337 22.2 229.037 20.5 230.437 19.1C231.837 17.7 233.537 17 235.537 17H243.937ZM235.537 26.9H239.137V21.5H235.537C234.877 21.5 234.307 21.76 233.827 22.28C233.367 22.8 233.137 23.44 233.137 24.2C233.137 24.96 233.367 25.6 233.827 26.12C234.307 26.64 234.877 26.9 235.537 26.9Z" fill="#04BA16"/>
<path d="M100.718 73H95.2583L88.5383 63.28V73H83.7383V52H88.5383V61.12L94.9583 52H100.418L93.3383 62.23L100.718 73Z" fill="#04BA16"/>
<path d="M118.49 70.27C116.37 72.37 113.79 73.42 110.75 73.42C107.71 73.42 105.13 72.37 103.01 70.27C100.89 68.17 99.8305 65.58 99.8305 62.5C99.8305 59.42 100.89 56.83 103.01 54.73C105.13 52.63 107.71 51.58 110.75 51.58C113.79 51.58 116.37 52.63 118.49 54.73C120.61 56.83 121.67 59.42 121.67 62.5C121.67 65.58 120.61 68.17 118.49 70.27ZM106.37 67C107.55 68.16 109.01 68.74 110.75 68.74C112.49 68.74 113.94 68.16 115.1 67C116.28 65.84 116.87 64.34 116.87 62.5C116.87 60.66 116.28 59.16 115.1 58C113.94 56.84 112.49 56.26 110.75 56.26C109.01 56.26 107.55 56.84 106.37 58C105.21 59.16 104.63 60.66 104.63 62.5C104.63 64.34 105.21 65.84 106.37 67Z" fill="#04BA16"/>
<path d="M145.373 52V73H140.573V60.79L135.143 69.7H134.603L129.173 60.79V73H124.373V52H129.173L134.873 61.33L140.573 52H145.373Z" fill="#04BA16"/>
<path d="M164.882 52V73H160.082V56.62H153.782V73H148.982V52H164.882Z" fill="#04BA16"/>
<path d="M181.844 73L180.794 69.7H172.994L171.944 73H166.694L173.834 52H179.954L187.094 73H181.844ZM174.434 65.2H179.354L176.894 57.49L174.434 65.2Z" fill="#04BA16"/>
<path d="M200.285 52H205.085V73H200.285V64.66H193.685V73H188.885V52H193.685V60.04H200.285V52Z" fill="#04BA16"/>
<path d="M220.389 73V61.6L212.289 73H208.689V52H213.489V63.4L221.589 52H225.189V73H220.389Z" fill="#04BA16"/>
<path d="M243.937 52V73H239.137V66.1H237.607L233.137 73H227.737L232.657 65.5C231.377 64.96 230.337 64.12 229.537 62.98C228.737 61.82 228.337 60.56 228.337 59.2C228.337 57.2 229.037 55.5 230.437 54.1C231.837 52.7 233.537 52 235.537 52H243.937ZM235.537 61.9H239.137V56.5H235.537C234.877 56.5 234.307 56.76 233.827 57.28C233.367 57.8 233.137 58.44 233.137 59.2C233.137 59.96 233.367 60.6 233.827 61.12C234.307 61.64 234.877 61.9 235.537 61.9Z" fill="#04BA16"/>
<path d="M95.2414 95.85L97.6414 87H101.241L100.041 95.85H95.2414ZM101.241 95.85L103.641 87H107.241L106.041 95.85H101.241Z" fill="#04BA16"/>
<path d="M131.398 87V108H126.598V95.79L121.168 104.7H120.628L115.198 95.79V108H110.398V87H115.198L120.898 96.33L126.598 87H131.398Z" fill="#04BA16"/>
<path d="M148.358 108L147.308 104.7H139.508L138.458 108H133.208L140.348 87H146.468L153.608 108H148.358ZM140.948 100.2H145.868L143.408 92.49L140.948 100.2Z" fill="#04BA16"/>
<path d="M171.898 108H166.438L162.898 101.94L159.358 108H153.898L160.168 97.23L154.198 87H159.658L162.898 92.55L166.138 87H171.598L165.628 97.23L171.898 108Z" fill="#04BA16"/>
<path d="M178.802 103.38H186.302V108H174.002V87H178.802V103.38Z" fill="#04BA16"/>
<path d="M188.416 87H193.216V108H188.416V87Z" fill="#04BA16"/>
<path d="M208.524 87H213.324V108H209.724L201.624 96.6V108H196.824V87H200.424L208.524 98.4V87Z" fill="#04BA16"/>
<path d="M221.722 103.38H230.122V108H216.922V87H229.972V91.62H221.722V95.1H229.222V99.66H221.722V103.38Z" fill="#04BA16"/>
<path d="M238.38 87L235.98 95.85H232.38L233.58 87H238.38ZM244.38 87L241.98 95.85H238.38L239.58 87H244.38Z" fill="#04BA16"/>
</g>
<defs>
<filter id="filter0_d" x="0.984375" y="0.579987" width="263.396" height="131.42" filterUnits="userSpaceOnUse" color-interpolation-filters="sRGB">
<feFlood flood-opacity="0" result="BackgroundImageFix"/>
<feColorMatrix in="SourceAlpha" type="matrix" values="0 0 0 0 0 0 0 0 0 0 0 0 0 0 0 0 0 0 127 0"/>
<feOffset dy="4"/>
<feGaussianBlur stdDeviation="10"/>
<feColorMatrix type="matrix" values="0 0 0 0 0 0 0 0 0 0 0 0 0 0 0 0 0 0 0.7 0"/>
<feBlend mode="normal" in2="BackgroundImageFix" result="effect1_dropShadow"/>
<feBlend mode="normal" in="SourceGraphic" in2="effect1_dropShadow" result="shape"/>
</filter>
</defs>
</svg>
