<svg width="231" height="57" viewBox="0 0 231 57" fill="none" xmlns="http://www.w3.org/2000/svg">
<path d="M16.8608 24.8844L17.9421 29.9068H25.8592L28.524 25.2321L26.3613 37.5178H36.8659L42.7361 4.21497H31.6908L23.9668 17.4666L20.9159 4.21497H9.98643L4.11621 37.5178H14.6208L16.8608 24.8844Z" fill="white"/>
<path d="M70.7334 37.5178H72.1237H75.4836H83.7869L89.773 29.9068L93.8281 37.5178H105.066L96.377 21.3686L110.01 4.21497H96.9563L91.2019 11.5169L87.3399 4.21497H76.1016L84.5207 20.0164L74.7112 32.4567L70.7334 37.5178Z" fill="white"/>
<path d="M50.4187 37.5178L53.7014 29.9068H58.9537L59.6102 37.5178H66.9094H70.2693L69.5355 32.4567L65.326 4.21497H56.1344L39.4893 37.5178H50.4187ZM56.0572 23.8799L58.2199 18.896L58.5675 23.8799H56.0572Z" fill="white"/>
<path d="M118.582 41.1505L122.83 17.2745H112.325L106.455 50.5H130.168L131.828 41.1505H118.582Z" fill="#0A9F30"/>
<path d="M139.632 17.2745L133.762 50.5H144.266L150.137 17.2745H139.632Z" fill="#0A9F30"/>
<path d="M171.763 17.2745L169.291 31.376L161.761 17.2745H153.728L147.857 50.5H158.362L160.834 36.553L168.287 50.5H176.398L182.268 17.2745H171.763Z" fill="#0A9F30"/>
<path d="M207.061 26.624L208.683 17.2745H185.858L179.988 50.5H202.89L204.512 41.1505H192.154L192.694 38.0211H201.5L203.083 29.2125H194.278L194.702 26.624H207.061Z" fill="#0A9F30"/>
<path d="M3.42038 41.1505L0.137695 50.5001H102.789L104.45 41.1505H3.42038Z" fill="#0A9F30"/>
<path d="M112.944 13.6417L114.605 4.29221H212.97L209.34 13.6417H112.944Z" fill="white"/>
<path d="M219.877 5.51285C220.331 5.51285 220.784 5.60332 221.238 5.78426C221.646 5.9652 222.009 6.19137 222.372 6.50802C222.689 6.82466 222.962 7.18655 223.098 7.6389C223.279 8.04601 223.37 8.49836 223.37 8.99595C223.37 9.62924 223.234 10.2173 222.916 10.7149C222.599 11.2577 222.19 11.6648 221.646 11.9815C221.102 12.2981 220.512 12.4338 219.922 12.4338C219.287 12.4338 218.697 12.2981 218.198 11.9815C217.654 11.6648 217.246 11.2577 216.928 10.7149C216.611 10.1721 216.475 9.584 216.475 8.99595C216.475 8.40789 216.611 7.7746 216.928 7.27702C217.246 6.73419 217.654 6.32708 218.198 6.01043C218.652 5.64855 219.242 5.51285 219.877 5.51285ZM219.877 6.19137C219.378 6.19137 218.924 6.32708 218.471 6.55325C218.062 6.77943 217.699 7.14131 217.473 7.54843C217.2 7.95554 217.11 8.45313 217.11 8.95071C217.11 9.4483 217.246 9.90065 217.473 10.353C217.745 10.7601 218.062 11.122 218.516 11.3482C218.924 11.5743 219.423 11.7101 219.922 11.7101C220.421 11.7101 220.92 11.5743 221.329 11.3482C221.737 11.122 222.1 10.7601 222.327 10.353C222.553 9.94588 222.689 9.4483 222.689 8.95071C222.689 8.45313 222.553 7.95554 222.327 7.54843C222.1 7.14131 221.737 6.77943 221.329 6.55325C220.83 6.32708 220.376 6.19137 219.877 6.19137ZM219.06 10.8053H218.289V7.14131H220.013C220.285 7.14131 220.512 7.18655 220.693 7.27702C220.875 7.36749 221.011 7.50319 221.102 7.6389C221.192 7.7746 221.238 8.00078 221.238 8.18172C221.238 8.45313 221.147 8.6793 220.966 8.86024C220.784 9.04118 220.557 9.17689 220.24 9.22212C220.421 9.26736 220.512 9.35783 220.648 9.49353C220.739 9.62924 220.875 9.81018 221.056 10.0816L221.51 10.8053H220.603L220.285 10.2173C220.149 9.94588 220.013 9.76494 219.922 9.62924C219.832 9.49353 219.741 9.40306 219.605 9.35783C219.514 9.31259 219.378 9.26736 219.242 9.26736H219.06V10.8053ZM219.06 7.72937V8.72454H219.65C219.922 8.72454 220.149 8.6793 220.285 8.63407C220.421 8.5436 220.512 8.40789 220.512 8.22695C220.512 8.09125 220.467 7.95554 220.331 7.86507C220.194 7.7746 220.013 7.72937 219.741 7.72937H219.06Z" fill="white"/>
</svg>
