<svg width="32" height="68" viewBox="0 0 32 68" fill="none" xmlns="http://www.w3.org/2000/svg">
<path d="M7.80469 59.093L15.8047 67.093L23.8047 59.093M15.8047 51.093C7.52042 51.093 0.804688 44.3772 0.804688 36.093V16.093C0.804688 7.80869 7.52042 1.09296 15.8047 1.09296C24.089 1.09296 30.8047 7.80869 30.8047 16.093V36.093C30.8047 44.3772 24.089 51.093 15.8047 51.093ZM15.8047 20.093C14.1478 20.093 12.8047 18.7498 12.8047 17.093V13.093C12.8047 11.4361 14.1478 10.093 15.8047 10.093C17.4615 10.093 18.8047 11.4361 18.8047 13.093V17.093C18.8047 18.7498 17.4615 20.093 15.8047 20.093Z" stroke="white"/>
</svg>
