<svg width="25" height="25" viewBox="0 0 25 25" fill="none" xmlns="http://www.w3.org/2000/svg">
<g clip-path="url(#clip0)">
<path d="M23.1851 17.2014L20.0682 15.5703C19.289 15.182 18.7435 15.4926 18.1201 16.347C16.7176 18.2888 16.0163 18.6771 14.302 17.6674C12.6656 16.7354 11.4968 15.7256 10.0942 14.2499C8.61366 12.7742 7.60067 11.6868 6.6656 10.0557C5.73054 8.347 6.12015 7.64798 7.99028 6.24992C8.84742 5.62856 9.15911 5.0072 8.7695 4.30817L7.13314 1.27904C6.50976 -0.0413446 5.49677 -0.196684 4.09418 0.269335C2.14612 0.968364 0.275993 3.76448 0.353915 5.08487C0.665604 8.96836 2.61366 13.6286 6.6656 17.7451C10.7176 21.7839 15.4708 23.7256 19.3669 24.0363C20.6916 24.114 23.4968 22.2499 24.1981 20.3082C24.5877 18.8324 24.4318 17.9004 23.1851 17.2014Z" fill="white"/>
<path d="M13.9901 5.47371C13.3667 5.47371 12.8213 6.0174 12.8213 6.63876C12.8213 7.26012 13.3667 7.80381 13.9901 7.80381C14.6914 7.80381 15.3148 8.03682 15.8602 8.5805C16.3278 9.04652 16.6395 9.74555 16.6395 10.4446C16.6395 11.0659 17.1849 11.6096 17.8083 11.6096C18.4317 11.6096 18.9771 11.0659 18.9771 10.4446C18.9771 9.12419 18.5096 7.88148 17.4966 6.94944C16.5615 5.93973 15.3148 5.47371 13.9901 5.47371ZM21.0031 3.45429C19.133 1.59021 16.6395 0.580505 14.068 0.580505C13.4447 0.580505 12.8992 1.12419 12.8992 1.74555C12.8992 2.36691 13.4447 2.9106 14.068 2.9106C16.094 2.9106 17.9641 3.6873 19.3667 5.08536C20.7693 6.48342 21.5486 8.3475 21.5486 10.3669C21.5486 10.9883 22.094 11.532 22.7174 11.532C23.3408 11.532 23.8862 10.9883 23.8862 10.3669C23.8862 7.80381 22.8732 5.31837 21.0031 3.45429Z" fill="white"/>
</g>
<defs>
<clipPath id="clip0">
<rect width="24" height="24" fill="white" transform="translate(0.354492 0.0368042)"/>
</clipPath>
</defs>
</svg>
