<svg width="27" height="24" viewBox="0 0 27 24" fill="none" xmlns="http://www.w3.org/2000/svg">
<path d="M0.504543 11.2489C3.22749 9.74899 6.26705 8.49718 9.10707 7.23896C13.993 5.1781 18.8983 3.15296 23.8532 1.26757C24.8172 0.94632 26.5494 0.632153 26.7192 2.0608C26.6261 4.08303 26.2436 6.09343 25.9812 8.10382C25.3151 12.5249 24.5453 16.9308 23.7946 21.3372C23.5359 22.805 21.6972 23.5648 20.5207 22.6255C17.6933 20.7157 14.8442 18.8245 12.0529 16.8704C11.1385 15.9413 11.9864 14.6071 12.803 13.9436C15.1317 11.6486 17.6014 9.69882 19.8084 7.28526C20.4038 5.84759 18.6447 7.05922 18.0645 7.43045C14.8765 9.62739 11.7665 11.9584 8.40527 13.8893C6.68837 14.8344 4.68729 14.0267 2.97117 13.4993C1.43244 12.8622 -0.822351 12.2204 0.504388 11.249L0.504543 11.2489Z" fill="white"/>
</svg>
