<svg width="408" height="113" viewBox="0 0 408 113" fill="none" xmlns="http://www.w3.org/2000/svg">
<g filter="url(#filter0_d)">
<path d="M30.5 20L387.895 20L377.5 92.5453H20.5146L30.5 20Z" fill="#FF0000"/>
<path d="M30.5 20L387.895 20L377.5 92.5453H20.5146L30.5 20Z" fill="url(#paint0_linear)" fill-opacity="0.8"/>
<path d="M21.0882 92.0453L30.9359 20.5H387.318L377.067 92.0453H21.0882Z" stroke="url(#paint1_linear)"/>
</g>
<g filter="url(#filter1_d)">
<path d="M92.466 53.56C94.2166 53.56 95.586 54.132 96.574 55.276C97.5793 56.4027 97.9346 57.824 97.64 59.54C97.328 61.2733 96.5393 62.6167 95.274 63.57C94.026 64.5233 92.414 65 90.438 65H83.418L86.616 46.8H98.316L97.614 50.804H90.074L89.58 53.56H92.466ZM93.532 59.28C93.636 58.656 93.5233 58.1967 93.194 57.902C92.8646 57.6073 92.388 57.46 91.764 57.46H88.904L88.254 61.1H91.114C92.518 61.1 93.324 60.4933 93.532 59.28Z" fill="white"/>
<path d="M106.716 65.364C104.081 65.364 101.984 64.4107 100.424 62.504C98.8813 60.5973 98.3527 58.3093 98.838 55.64C99.306 52.936 100.545 50.726 102.556 49.01C104.584 47.294 107.011 46.436 109.836 46.436C112.436 46.436 114.507 47.3893 116.05 49.296C117.61 51.2027 118.156 53.4907 117.688 56.16C117.203 58.864 115.955 61.074 113.944 62.79C111.933 64.506 109.524 65.364 106.716 65.364ZM107.158 61.308C108.683 61.308 110.053 60.8053 111.266 59.8C112.497 58.7947 113.251 57.4947 113.528 55.9C113.805 54.3053 113.528 53.0053 112.696 52C111.881 50.9947 110.72 50.492 109.212 50.492C107.704 50.492 106.361 50.9947 105.182 52C104.003 53.0053 103.275 54.3053 102.998 55.9C102.721 57.512 102.972 58.8207 103.752 59.826C104.532 60.814 105.667 61.308 107.158 61.308Z" fill="white"/>
<path d="M115.609 65.052L116.285 61.152C117.291 61.2733 118.079 61.1 118.651 60.632C119.223 60.164 119.639 59.2107 119.899 57.772L121.823 46.8H134.407L131.209 65H127.049L129.545 50.804H125.281L124.085 57.616C123.895 58.7427 123.617 59.748 123.253 60.632C122.907 61.4987 122.517 62.2007 122.083 62.738C121.65 63.258 121.165 63.7087 120.627 64.09C120.09 64.454 119.544 64.6967 118.989 64.818C118.452 64.9393 117.889 65.026 117.299 65.078C116.71 65.1473 116.147 65.1387 115.609 65.052Z" fill="white"/>
<path d="M142.829 52.52C144.511 52.52 145.88 53.1787 146.937 54.496C148.012 55.796 148.402 57.304 148.107 59.02C147.778 60.8747 146.946 62.3393 145.611 63.414C144.294 64.4713 142.639 65 140.645 65H133.807L137.005 46.8H141.165L140.151 52.52H142.829ZM143.947 58.76C144.069 58.1013 143.956 57.5467 143.609 57.096C143.28 56.6453 142.795 56.42 142.153 56.42H139.475L138.643 61.1H141.321C141.997 61.1 142.569 60.8833 143.037 60.45C143.523 59.9993 143.826 59.436 143.947 58.76Z" fill="white"/>
<path d="M168.981 46.8H173.141L169.943 65H148.623L151.821 46.8H155.981L153.485 60.996H157.905L160.401 46.8H164.561L162.065 60.996H166.485L168.981 46.8Z" fill="white"/>
<path d="M186.36 50.804H179.21L178.664 53.846H185.19L184.488 57.746H177.988L177.416 60.996H184.696L183.994 65H172.554L175.752 46.8H187.062L186.36 50.804Z" fill="white"/>
<path d="M206.933 52.13C206.691 53.638 205.963 54.8167 204.749 55.666C205.98 56.6367 206.474 58.0147 206.231 59.8C206.023 61.36 205.321 62.6167 204.125 63.57C202.929 64.5233 201.283 65 199.185 65H191.801L194.999 46.8H201.863C203.51 46.8 204.827 47.3027 205.815 48.308C206.803 49.296 207.176 50.57 206.933 52.13ZM201.317 50.7H198.483L197.911 53.924H200.745C201.265 53.924 201.707 53.7767 202.071 53.482C202.435 53.1873 202.661 52.7973 202.747 52.312C202.834 51.8613 202.756 51.48 202.513 51.168C202.271 50.856 201.872 50.7 201.317 50.7ZM201.421 60.632C201.82 60.3027 202.063 59.878 202.149 59.358C202.236 58.838 202.141 58.422 201.863 58.11C201.603 57.7807 201.187 57.616 200.615 57.616H197.261L196.637 61.1H199.991C200.563 61.1 201.04 60.944 201.421 60.632Z" fill="white"/>
<path d="M218.441 65L218.077 62.14H211.317L209.861 65H205.311L214.697 46.8H220.001L222.991 65H218.441ZM213.267 58.24H217.609L216.751 51.35L213.267 58.24Z" fill="white"/>
<path d="M241.937 46.8L233.669 55.744L238.739 65H234.449L229.691 56.342L228.183 65H224.023L227.221 46.8H231.381L230.029 54.418L237.023 46.8H241.937Z" fill="white"/>
<path d="M251.856 65L251.492 62.14H244.732L243.276 65H238.726L248.112 46.8H253.416L256.406 65H251.856ZM246.682 58.24H251.024L250.166 51.35L246.682 58.24Z" fill="white"/>
<path d="M270.516 46.8H274.676L271.478 65H267.318L268.592 57.772H262.872L261.598 65H257.438L260.636 46.8H264.796L263.574 53.768H269.294L270.516 46.8Z" fill="white"/>
<path d="M283 65.364C280.227 65.364 278.078 64.4193 276.552 62.53C275.027 60.6407 274.49 58.344 274.94 55.64C275.391 52.9707 276.622 50.7693 278.632 49.036C280.66 47.3027 283.026 46.436 285.73 46.436C287.464 46.436 288.946 46.8087 290.176 47.554C291.424 48.2993 292.352 49.3393 292.958 50.674L289.136 52.676C288.426 51.22 287.143 50.492 285.288 50.492C283.711 50.492 282.35 50.986 281.206 51.974C280.08 52.962 279.378 54.2707 279.1 55.9C278.823 57.512 279.066 58.8207 279.828 59.826C280.591 60.814 281.726 61.308 283.234 61.308C285.228 61.308 286.805 60.5367 287.966 58.994L291.346 61.204C290.358 62.504 289.136 63.5267 287.68 64.272C286.224 65 284.664 65.364 283 65.364Z" fill="white"/>
<path d="M292.097 65L295.295 46.8H299.455L297.765 56.394L306.475 46.8H309.595L306.397 65H302.237L303.927 55.406L295.217 65H292.097Z" fill="white"/>
<path d="M315.469 45.266L316.041 41.886H323.841L323.269 45.266H315.469ZM308.995 65L312.193 46.8H316.353L314.663 56.394L323.373 46.8H326.493L323.295 65H319.135L320.825 55.406L312.115 65H308.995Z" fill="white"/>
</g>
<defs>
<filter id="filter0_d" x="0.514648" y="0" width="407.381" height="112.545" filterUnits="userSpaceOnUse" color-interpolation-filters="sRGB">
<feFlood flood-opacity="0" result="BackgroundImageFix"/>
<feColorMatrix in="SourceAlpha" type="matrix" values="0 0 0 0 0 0 0 0 0 0 0 0 0 0 0 0 0 0 127 0"/>
<feOffset/>
<feGaussianBlur stdDeviation="10"/>
<feColorMatrix type="matrix" values="0 0 0 0 1 0 0 0 0 0.233333 0 0 0 0 0.233333 0 0 0 0.8 0"/>
<feBlend mode="normal" in2="BackgroundImageFix" result="effect1_dropShadow"/>
<feBlend mode="normal" in="SourceGraphic" in2="effect1_dropShadow" result="shape"/>
</filter>
<filter id="filter1_d" x="82.418" y="41.886" width="245.075" height="25.478" filterUnits="userSpaceOnUse" color-interpolation-filters="sRGB">
<feFlood flood-opacity="0" result="BackgroundImageFix"/>
<feColorMatrix in="SourceAlpha" type="matrix" values="0 0 0 0 0 0 0 0 0 0 0 0 0 0 0 0 0 0 127 0"/>
<feOffset dy="1"/>
<feGaussianBlur stdDeviation="0.5"/>
<feColorMatrix type="matrix" values="0 0 0 0 0 0 0 0 0 0 0 0 0 0 0 0 0 0 0.25 0"/>
<feBlend mode="normal" in2="BackgroundImageFix" result="effect1_dropShadow"/>
<feBlend mode="normal" in="SourceGraphic" in2="effect1_dropShadow" result="shape"/>
</filter>
<linearGradient id="paint0_linear" x1="347.43" y1="-68.1626" x2="98.9998" y2="119.147" gradientUnits="userSpaceOnUse">
<stop stop-color="#6A0000"/>
<stop offset="1" stop-color="white" stop-opacity="0"/>
</linearGradient>
<linearGradient id="paint1_linear" x1="421.698" y1="49.878" x2="-114.57" y2="56.2726" gradientUnits="userSpaceOnUse">
<stop stop-color="white"/>
<stop offset="1" stop-color="white" stop-opacity="0"/>
</linearGradient>
</defs>
</svg>
