<svg width="20" height="13" viewBox="0 0 20 13" fill="none" xmlns="http://www.w3.org/2000/svg">
<g clip-path="url(#clip0)">
<path d="M17.2784 1.23247C17.2605 1.21558 17.2605 1.1987 17.2426 1.1987C16.7055 0.472727 15.8102 0 14.7896 0H3.00806C2.00537 0 1.11012 0.472727 0.555058 1.1987L0.537153 1.21558C0.537153 1.21558 0.537153 1.23247 0.519248 1.23247C0.196956 1.68831 0 2.24545 0 2.83636V8.07013C0 9.64026 1.34288 10.9065 3.00806 10.9065H11.2802C11.4951 10.9065 11.6562 10.7377 11.6562 10.5519C11.6562 10.3494 11.4772 10.1974 11.2802 10.1974H3.00806C1.77261 10.1974 0.76992 9.25195 0.76992 8.08701V2.85325C0.76992 2.53247 0.84154 2.24545 0.966876 1.97532L8.68398 7.25974C8.7556 7.31039 8.82722 7.32727 8.89884 7.32727C8.97046 7.32727 9.05998 7.31039 9.1137 7.25974L16.8308 1.95844C16.9561 2.22857 17.0278 2.53247 17.0278 2.83636V4.69351C17.0278 4.8961 17.2068 5.04805 17.4038 5.04805C17.6186 5.04805 17.7798 4.87922 17.7798 4.69351V2.83636C17.7977 2.24545 17.6186 1.68831 17.2784 1.23247ZM8.89884 6.5L1.3966 1.36753C1.80842 0.962338 2.38138 0.725974 3.00806 0.725974H14.7896C15.4163 0.725974 15.9893 0.979221 16.4011 1.36753L8.89884 6.5Z" fill="#333333"/>
<path d="M15.8464 13C13.5545 13 11.6924 11.2442 11.6924 9.08314C11.6924 6.9221 13.5545 5.16626 15.8464 5.16626C18.1382 5.16626 20.0183 6.9221 20.0183 9.08314C20.0003 11.2442 18.1382 13 15.8464 13ZM15.8464 5.85847C13.9663 5.85847 12.4444 7.29353 12.4444 9.06626C12.4444 10.839 13.9663 12.2741 15.8464 12.2741C17.7264 12.2741 19.2483 10.839 19.2483 9.06626C19.2483 7.31042 17.7264 5.85847 15.8464 5.85847Z" fill="#333333"/>
<path d="M15.8461 10.2987C15.1299 10.2987 14.5391 9.74153 14.5391 9.06621C14.5391 8.39088 15.1299 7.83374 15.8461 7.83374C16.5623 7.83374 17.1532 8.39088 17.1532 9.06621C17.1532 9.75842 16.5623 10.2987 15.8461 10.2987ZM15.8461 8.55971C15.5417 8.55971 15.309 8.79608 15.309 9.06621C15.309 9.35322 15.5597 9.5727 15.8461 9.5727C16.1505 9.5727 16.3833 9.33634 16.3833 9.06621C16.3833 8.79608 16.1505 8.55971 15.8461 8.55971Z" fill="#333333"/>
<path d="M15.8459 11.5649C15.7206 11.5649 15.5773 11.548 15.452 11.5311C14.3419 11.3792 13.4287 10.535 13.2497 9.48825C13.1064 8.67786 13.375 7.88435 13.9838 7.31033C14.5926 6.7363 15.4341 6.48305 16.2935 6.61812C17.3678 6.78695 18.2631 7.61422 18.4421 8.62721C18.4959 8.91422 18.4959 9.21812 18.4421 9.50513C18.3705 9.92721 17.9766 10.2311 17.4574 10.2649C16.9739 10.2818 16.5621 10.0454 16.4368 9.6402C16.401 9.55578 16.3831 9.45448 16.3831 9.35318V8.22201C16.3831 8.01942 16.5621 7.86747 16.7591 7.86747C16.9739 7.86747 17.1351 8.0363 17.1351 8.22201V9.35318C17.1351 9.38695 17.1351 9.40383 17.153 9.4376C17.1888 9.55578 17.3857 9.55578 17.4037 9.55578C17.529 9.55578 17.6543 9.48825 17.6722 9.38695C17.708 9.18435 17.708 8.96487 17.6722 8.76227C17.5469 8.0363 16.9202 7.46227 16.1503 7.34409C15.5415 7.24279 14.9327 7.42851 14.503 7.8337C14.0733 8.2389 13.8763 8.81292 13.9838 9.38695C14.1091 10.1298 14.7537 10.7207 15.5415 10.8389C15.9891 10.9064 16.4189 10.822 16.7949 10.6025C16.9739 10.5012 17.2067 10.5519 17.3141 10.7207C17.4216 10.8895 17.3678 11.109 17.1888 11.2103C16.7949 11.4298 16.3293 11.5649 15.8459 11.5649Z" fill="#333333"/>
</g>
<defs>
<clipPath id="clip0">
<rect width="20" height="13" fill="white"/>
</clipPath>
</defs>
</svg>
