<svg width="27" height="22" viewBox="0 0 27 22" fill="none" xmlns="http://www.w3.org/2000/svg">
<g clip-path="url(#clip0)">
<path d="M25.466 0H11.5721C11.2462 0 10.9775 0.256859 10.9775 0.577933V10.7538C10.9775 11.0706 11.2418 11.3318 11.5721 11.3318H25.466C25.7919 11.3318 26.0606 11.0749 26.0606 10.7538V0.577933C26.0562 0.256859 25.7919 0 25.466 0ZM24.8715 1.15587V1.60109H12.1666V1.15587H24.8715ZM12.1666 10.1759V2.75268H24.8715V10.1759H12.1666Z" fill="#0A9F30"/>
<path d="M13.242 7.96693H19.1254C19.4513 7.96693 19.72 7.71007 19.72 7.389V3.9428C19.72 3.62601 19.4557 3.36487 19.1254 3.36487H13.242C12.9161 3.36487 12.6475 3.62173 12.6475 3.9428V7.389C12.6475 7.70579 12.9161 7.96693 13.242 7.96693ZM13.8365 4.51645H18.5309V6.81106H13.8365V4.51645Z" fill="#0A9F30"/>
<path d="M23.4501 3.45044H20.8562C20.5304 3.45044 20.2617 3.7073 20.2617 4.02837C20.2617 4.34517 20.5259 4.60631 20.8562 4.60631H23.4501C23.7759 4.60631 24.0446 4.34945 24.0446 4.02837C24.0446 3.7073 23.7804 3.45044 23.4501 3.45044Z" fill="#0A9F30"/>
<path d="M20.8562 6.28453H22.4152C22.7411 6.28453 23.0097 6.02767 23.0097 5.7066C23.0097 5.3898 22.7455 5.12866 22.4152 5.12866H20.8562C20.5303 5.12866 20.2617 5.38552 20.2617 5.7066C20.2617 6.02767 20.5259 6.28453 20.8562 6.28453Z" fill="#0A9F30"/>
<path d="M20.8562 7.9669H23.1902C23.5161 7.9669 23.7848 7.71004 23.7848 7.38897C23.7848 7.07218 23.5205 6.81104 23.1902 6.81104H20.8562C20.5304 6.81104 20.2617 7.06789 20.2617 7.38897C20.2617 7.70576 20.5259 7.9669 20.8562 7.9669Z" fill="#0A9F30"/>
<path d="M23.4498 8.41211H13.3299C13.004 8.41211 12.7354 8.66897 12.7354 8.99004C12.7354 9.30684 12.9996 9.56798 13.3299 9.56798H23.4542C23.7801 9.56798 24.0487 9.31112 24.0487 8.99004C24.0443 8.66897 23.7801 8.41211 23.4498 8.41211Z" fill="#0A9F30"/>
<path d="M21.3402 11.7769C21.0143 11.7769 20.7457 12.0338 20.7457 12.3549V13.4765H1.24567V3.07798C1.24567 2.8468 1.43943 2.65416 1.68164 2.65416H9.71856C10.0444 2.65416 10.3131 2.3973 10.3131 2.07622C10.3131 1.75515 10.0488 1.49829 9.71856 1.49829H1.67724C0.783267 1.50257 0.0566406 2.20894 0.0566406 3.07798V16.4304C0.0566406 17.2994 0.783267 18.0058 1.67724 18.0058H6.90454L6.45535 20.8441H4.90962C4.58374 20.8441 4.31511 21.1009 4.31511 21.422C4.31511 21.7388 4.57934 21.9999 4.90962 21.9999H17.0685C17.3944 21.9999 17.663 21.7431 17.663 21.422C17.663 21.1052 17.3988 20.8441 17.0685 20.8441H15.5228L15.0736 18.0058H20.3009C21.1949 18.0058 21.9215 17.2994 21.9215 16.4304V12.3549C21.9347 12.0338 21.6661 11.7769 21.3402 11.7769ZM14.3293 20.8441H7.65759L8.10678 18.0058H13.8801L14.3293 20.8441ZM20.3097 16.8542H1.67724C1.43943 16.8542 1.24126 16.6658 1.24126 16.4304V14.6281H20.7413V16.4304C20.7457 16.6658 20.5519 16.8542 20.3097 16.8542Z" fill="#0A9F30"/>
</g>
<defs>
<clipPath id="clip0">
<rect width="26" height="22" fill="white" transform="translate(0.0566406)"/>
</clipPath>
</defs>
</svg>
