<svg width="29" height="27" viewBox="0 0 29 27" fill="none" xmlns="http://www.w3.org/2000/svg">
<g clip-path="url(#clip0)">
<path d="M11.5582 21.3649C11.9434 21.3649 12.2609 21.0563 12.2609 20.6704C12.2609 19.5695 13.1667 18.6744 14.2806 18.6744C15.3946 18.6744 16.3003 19.5695 16.3003 20.6704C16.3003 21.0511 16.6127 21.3649 17.0031 21.3649C17.3935 21.3649 17.7058 21.0563 17.7058 20.6704C17.7058 19.0396 16.5346 17.6815 14.9834 17.3574V14.1061C14.9834 13.7254 14.671 13.4116 14.2806 13.4116C13.8902 13.4116 13.5779 13.7203 13.5779 14.1061V17.3574C12.0267 17.6815 10.8555 19.0396 10.8555 20.6704C10.8555 21.0563 11.173 21.3649 11.5582 21.3649Z" fill="#0A9F30"/>
<path d="M27.573 22.3723H26.1675V11.6976C26.1675 8.50801 24.0437 7.83923 22.2634 7.83923H17.6462V5.82261C17.6462 3.03433 14.8249 1.12059 14.6635 1.01256C14.4293 0.858228 14.0857 0.878806 13.8463 1.03828C13.7265 1.12059 10.9052 3.03433 10.9052 5.81747V7.83409H6.85538C4.13294 7.83409 2.37871 9.34655 2.37871 11.6924V22.3671H0.973241C0.588039 22.3671 0.270508 22.6758 0.270508 23.0616V24.3529C0.270508 25.5567 1.4105 26.9045 2.94089 26.9045H26.027C27.5678 26.9045 28.2705 25.5824 28.2705 24.3529V23.0616C28.2757 22.6861 27.9634 22.3723 27.573 22.3723ZM26.8755 24.358C26.8755 24.4764 26.8546 25.5258 26.0374 25.5258H2.9513C2.22775 25.5258 1.68638 24.8159 1.68638 24.358V23.7613H3.09185C3.47705 23.7613 3.79458 23.4526 3.79458 23.0668V11.6976C3.79458 10.1285 4.91375 9.22309 6.87099 9.22309H10.9208V10.679C10.9208 10.7561 10.749 10.9568 10.5981 11.1317C10.0255 11.8005 9.16138 12.8139 9.16138 15.2781C9.16138 15.6125 9.40604 15.9006 9.73918 15.9623C9.87453 15.988 10.0411 16.0035 10.2233 16.0035C11.1655 16.0035 12.6074 15.6073 13.4663 14.0537C13.6537 13.7193 13.5235 13.2975 13.1852 13.1123C12.8416 12.9271 12.42 13.0557 12.2326 13.3901C11.7589 14.2441 11.0822 14.5167 10.5929 14.5939C10.7178 13.1483 11.2383 12.5361 11.6652 12.0371C11.9879 11.6616 12.3159 11.2706 12.3159 10.6893V5.82261C12.3159 4.28957 13.612 3.01889 14.2835 2.46329C14.9342 2.99831 16.246 4.26899 16.246 5.82261V10.679C16.246 11.2654 16.5791 11.6513 16.8966 12.0268C17.3235 12.531 17.844 13.138 17.969 14.5836C17.4797 14.5064 16.7977 14.2338 16.3293 13.3849C16.1419 13.0505 15.7202 12.9271 15.3767 13.1071C15.0383 13.2923 14.9134 13.7142 15.0956 14.0486C16.121 15.9057 17.9846 16.1115 18.8227 15.9623C19.1558 15.9006 19.4005 15.6176 19.4005 15.2781C19.4005 12.8139 18.5364 11.8056 17.969 11.1368C17.818 10.9619 17.6462 10.7613 17.6462 10.679V9.22823H22.2634C24.0645 9.22823 24.7673 9.92273 24.7673 11.7027V23.0719C24.7673 23.4526 25.0796 23.7664 25.47 23.7664H26.8755V24.358Z" fill="#0A9F30"/>
<path d="M22.4209 22.3783H17.153C16.7678 22.3783 16.4606 22.6818 16.4502 23.0574H12.1037C12.0933 22.6818 11.7862 22.3783 11.401 22.3783H6.13828C5.75308 22.3783 5.43555 22.687 5.43555 23.0728C5.43555 23.4535 5.74787 23.7673 6.13828 23.7673H10.7034C10.7139 24.1428 11.021 24.4464 11.4062 24.4464H17.153C17.5382 24.4464 17.8453 24.1428 17.8557 23.7673H22.4209C22.8061 23.7673 23.1236 23.4586 23.1236 23.0728C23.1236 22.687 22.8061 22.3783 22.4209 22.3783Z" fill="#0A9F30"/>
<path d="M8.36094 21.3648C8.74614 21.3648 9.06367 21.0562 9.06367 20.6703C9.06367 19.9964 9.46969 19.3997 10.0996 19.1424C10.4587 18.9984 10.6305 18.592 10.4848 18.237C10.339 17.882 9.92777 17.7123 9.5686 17.8563C8.40779 18.3245 7.6582 19.4305 7.6582 20.6652C7.6582 21.0562 7.97573 21.3648 8.36094 21.3648Z" fill="#0A9F30"/>
<path d="M18.4544 19.1425C19.0842 19.3997 19.4954 19.9964 19.4954 20.6704C19.4954 21.0511 19.8078 21.3649 20.1982 21.3649C20.5834 21.3649 20.9009 21.0562 20.9009 20.6704C20.9009 19.4306 20.1513 18.3296 18.9905 17.8564C18.6313 17.7123 18.2201 17.8769 18.0744 18.2319C17.9234 18.592 18.0952 18.9984 18.4544 19.1425Z" fill="#0A9F30"/>
</g>
<defs>
<clipPath id="clip0">
<rect width="28" height="26" fill="white" transform="translate(0.277344 0.910645)"/>
</clipPath>
</defs>
</svg>
