<svg width="24" height="21" viewBox="0 0 24 21" fill="none" xmlns="http://www.w3.org/2000/svg">
<g clip-path="url(#clip0)">
<path d="M22.3002 0.425781H2.55726C1.66025 0.425781 0.928711 1.16898 0.928711 2.08028V4.66821C0.928711 4.96902 1.1682 5.21676 1.46866 5.21676H23.3888C23.6849 5.21676 23.9287 4.97345 23.9287 4.66821V2.08028C23.9287 1.16898 23.1972 0.425781 22.3002 0.425781ZM22.8488 4.12408H2.0086V2.08028C2.0086 1.77062 2.25681 1.52288 2.55726 1.52288H22.3002C22.605 1.52288 22.8488 1.77504 22.8488 2.08028V4.12408Z" fill="#0A9F30"/>
<path d="M23.3888 6.45093C23.0927 6.45093 22.8488 6.69424 22.8488 6.99948V18.7756C22.8488 19.0853 22.6006 19.333 22.3002 19.333H2.55726C2.25245 19.333 2.0086 19.0809 2.0086 18.7756V6.99948C2.0086 6.69866 1.76911 6.45093 1.46866 6.45093C1.17256 6.45093 0.928711 6.69424 0.928711 6.99948V18.7756C0.928711 19.6869 1.66025 20.4301 2.55726 20.4301H22.3002C23.1972 20.4301 23.9287 19.6869 23.9287 18.7756V6.99948C23.9287 6.69424 23.6892 6.45093 23.3888 6.45093Z" fill="#0A9F30"/>
<path d="M3.51094 2.18213C3.20177 2.18213 2.94922 2.43871 2.94922 2.75722C2.94922 3.07131 3.20177 3.32789 3.51094 3.32789C3.82446 3.32789 4.07701 3.07131 4.07701 2.75722C4.07266 2.43871 3.8201 2.18213 3.51094 2.18213Z" fill="#0A9F30"/>
<path d="M5.59687 2.18213C5.28771 2.18213 5.03516 2.43871 5.03516 2.75722C5.03516 3.07131 5.28771 3.32789 5.59687 3.32789C5.91039 3.32789 6.16295 3.07131 6.16295 2.75722C6.16295 2.43871 5.91039 2.18213 5.59687 2.18213Z" fill="#0A9F30"/>
<path d="M7.68672 2.18213C7.37756 2.18213 7.125 2.43871 7.125 2.75722C7.125 3.07131 7.37756 3.32789 7.68672 3.32789C7.99588 3.32789 8.24844 3.07131 8.24844 2.75722C8.25279 2.43871 8.00023 2.18213 7.68672 2.18213Z" fill="#0A9F30"/>
<path d="M4.07217 16.5815C3.77607 16.5815 3.53223 16.8249 3.53223 17.1301C3.53223 17.4309 3.77172 17.6786 4.07217 17.6786H5.82265C6.11875 17.6786 6.36259 17.4353 6.36259 17.1301C6.36259 16.8293 6.1231 16.5815 5.82265 16.5815H4.07217Z" fill="#0A9F30"/>
<path d="M20.9196 16.5815H16.3388C16.0427 16.5815 15.7988 16.8249 15.7988 17.1301C15.7988 17.4309 16.0383 17.6786 16.3388 17.6786H20.9196C21.2157 17.6786 21.4596 17.4353 21.4596 17.1301C21.4596 16.8249 21.2157 16.5815 20.9196 16.5815Z" fill="#0A9F30"/>
<path d="M20.9198 14.3918H18.8993C18.6032 14.3918 18.3594 14.6352 18.3594 14.9404C18.3594 15.2412 18.5989 15.4889 18.8993 15.4889H20.9198C21.2159 15.4889 21.4597 15.2456 21.4597 14.9404C21.4597 14.6352 21.2159 14.3918 20.9198 14.3918Z" fill="#0A9F30"/>
</g>
<defs>
<clipPath id="clip0">
<rect width="23" height="20" fill="white" transform="translate(0.928711 0.425781)"/>
</clipPath>
</defs>
</svg>
