<svg width="28" height="25" viewBox="0 0 28 25" fill="none" xmlns="http://www.w3.org/2000/svg">
<g clip-path="url(#clip0)">
<path d="M25.5169 0.312988H2.34049C1.28748 0.312988 0.428711 1.15089 0.428711 2.17832V18.8516C0.428711 19.8791 1.28748 20.717 2.34049 20.717H11.1531L13.5453 24.0536C13.6629 24.2182 13.8571 24.318 14.0616 24.318C14.0667 24.318 14.0718 24.318 14.077 24.318C14.2865 24.313 14.4859 24.2033 14.5983 24.0287L16.7453 20.717H25.5118C26.5648 20.717 27.4236 19.8791 27.4236 18.8516V2.17832C27.4287 1.15089 26.5699 0.312988 25.5169 0.312988ZM26.161 18.8467C26.161 19.1958 25.8696 19.4751 25.5169 19.4751H16.4028C16.1881 19.4751 15.9836 19.5848 15.8712 19.7644L14.0412 22.5823L12.0016 19.7444C11.884 19.5798 11.6898 19.4801 11.4802 19.4801H2.34049C1.98267 19.4801 1.69641 19.1958 1.69641 18.8516V2.17832C1.69641 1.8292 1.98778 1.5499 2.34049 1.5499H25.5169C25.8748 1.5499 26.161 1.83419 26.161 2.17832V18.8467Z" fill="#0A9F30"/>
<path d="M17.2825 3.12598C15.4678 3.12598 13.9855 4.56737 13.9855 6.34293C13.9855 6.77685 14.0775 7.19082 14.241 7.57486L11.583 9.3554C11.0564 8.84668 10.3408 8.53246 9.54338 8.53246C7.95365 8.53246 6.65527 9.79929 6.65527 11.3504C6.65527 12.9065 7.94853 14.1684 9.54338 14.1684C10.3153 14.1684 11.0104 13.8691 11.5318 13.3853L13.6021 14.8168C13.505 15.0611 13.4487 15.3255 13.4487 15.5998C13.4487 16.8267 14.4711 17.8242 15.7285 17.8242C16.986 17.8242 18.0084 16.8267 18.0084 15.5998C18.0084 14.3729 16.986 13.3754 15.7285 13.3754C15.2123 13.3754 14.742 13.5499 14.3637 13.8292L12.2321 12.3579C12.3548 12.0437 12.4315 11.7045 12.4315 11.3454C12.4315 11.0113 12.3599 10.697 12.2526 10.4028L14.9413 8.60229C15.5394 9.19081 16.3675 9.55989 17.2825 9.55989C19.1023 9.55989 20.5795 8.1185 20.5795 6.34293C20.5795 4.56737 19.0972 3.12598 17.2825 3.12598ZM16.7355 15.5998C16.7355 16.1484 16.2806 16.5923 15.7183 16.5923C15.156 16.5923 14.7011 16.1484 14.7011 15.5998C14.7011 15.5549 14.7062 15.51 14.7164 15.4651C14.7164 15.4651 14.7266 15.4651 14.7318 15.4651C14.9311 15.4651 15.1254 15.3754 15.248 15.2058C15.3605 15.0462 15.3809 14.8567 15.3298 14.6821C15.4474 14.6322 15.5803 14.6073 15.7132 14.6073C16.2806 14.6073 16.7355 15.0512 16.7355 15.5998ZM11.1587 11.3454C11.1587 11.5848 11.1025 11.8093 11.0053 12.0088C10.944 12.0487 10.8878 12.0936 10.8469 12.1534C10.7958 12.2282 10.76 12.308 10.7446 12.3928C10.4482 12.717 10.0188 12.9265 9.53827 12.9265C8.64372 12.9265 7.91786 12.2182 7.91786 11.3454C7.91786 10.4726 8.64372 9.75939 9.53827 9.75939C9.9012 9.75939 10.2284 9.87909 10.4993 10.0736L9.88587 10.4826C9.59961 10.6771 9.52294 11.0611 9.72229 11.3404C9.84497 11.515 10.0443 11.6098 10.2437 11.6098C10.3664 11.6098 10.4942 11.5749 10.6015 11.5L11.1433 11.1409C11.1485 11.2108 11.1587 11.2756 11.1587 11.3454ZM17.2825 8.32299C16.163 8.32299 15.2532 7.4352 15.2532 6.34293C15.2532 5.25067 16.163 4.36288 17.2825 4.36288C18.402 4.36288 19.3118 5.25067 19.3118 6.34293C19.3118 7.4352 18.402 8.32299 17.2825 8.32299Z" fill="#0A9F30"/>
</g>
<defs>
<clipPath id="clip0">
<rect width="27" height="24" fill="white" transform="translate(0.428711 0.312988)"/>
</clipPath>
</defs>
</svg>
