<svg width="28" height="28" viewBox="0 0 28 28" fill="none" xmlns="http://www.w3.org/2000/svg">
<path d="M15.072 17.8797L13.4999 16.6366C13.4405 16.5891 13.3724 16.5537 13.2993 16.5326C13.2262 16.5115 13.1497 16.505 13.0742 16.5136C12.9986 16.5222 12.9255 16.5457 12.859 16.5826C12.7926 16.6196 12.7341 16.6694 12.6869 16.729C12.6398 16.7887 12.6049 16.8571 12.5843 16.9303C12.5637 17.0035 12.5578 17.0801 12.5669 17.1556C12.576 17.2311 12.5999 17.304 12.6374 17.3702C12.6748 17.4364 12.7249 17.4946 12.7849 17.5413L12.8446 17.5884C12.253 17.4021 11.7195 17.0665 11.2955 16.6139C10.8715 16.1613 10.5712 15.6071 10.4237 15.0047C10.2762 14.4024 10.2865 13.7721 10.4535 13.1749C10.6205 12.5776 10.9386 12.0334 11.3772 11.5949C11.4822 11.4862 11.5403 11.3405 11.5389 11.1893C11.5376 11.0382 11.4769 10.8936 11.37 10.7867C11.2631 10.6798 11.1184 10.6192 10.9673 10.6179C10.8161 10.6167 10.6705 10.6748 10.5618 10.7798C9.94352 11.398 9.50755 12.1745 9.30172 13.0242C9.09588 13.8739 9.12814 14.7638 9.39495 15.5963C9.66177 16.4289 10.1528 17.1718 10.8142 17.7436C11.4756 18.3153 12.2817 18.6938 13.144 18.8374L12.7843 19.1217C12.7243 19.1685 12.6741 19.2266 12.6367 19.2928C12.5993 19.359 12.5753 19.432 12.5662 19.5075C12.5571 19.583 12.563 19.6595 12.5836 19.7327C12.6042 19.8059 12.6391 19.8743 12.6863 19.934C12.7334 19.9937 12.7919 20.0434 12.8584 20.0804C12.9248 20.1174 12.9979 20.1408 13.0735 20.1494C13.1491 20.158 13.2256 20.1515 13.2986 20.1304C13.3717 20.1093 13.4399 20.074 13.4992 20.0264L15.072 18.7834C15.1403 18.7294 15.1955 18.6607 15.2335 18.5823C15.2714 18.504 15.2911 18.4181 15.2911 18.331C15.2911 18.244 15.2714 18.1581 15.2335 18.0797C15.1955 18.0014 15.1403 17.9326 15.072 17.8787V17.8797Z" fill="#0A9F30"/>
<path d="M13.9278 6.3894C12.3911 6.3894 10.889 6.84508 9.61125 7.69882C8.33354 8.55255 7.3377 9.766 6.74963 11.1857C6.16157 12.6054 6.00771 14.1676 6.3075 15.6748C6.60729 17.1819 7.34727 18.5663 8.43387 19.6529C9.52047 20.7395 10.9049 21.4795 12.412 21.7793C13.9192 22.0791 15.4814 21.9252 16.9011 21.3372C18.3208 20.7491 19.5343 19.7533 20.388 18.4756C21.2417 17.1979 21.6974 15.6957 21.6974 14.159C21.6951 12.0991 20.8758 10.1242 19.4192 8.66757C17.9627 7.21098 15.9877 6.39167 13.9278 6.3894ZM13.9278 20.7755C12.6192 20.7755 11.34 20.3875 10.2519 19.6604C9.1638 18.9334 8.31575 17.9 7.81496 16.691C7.31417 15.482 7.18314 14.1517 7.43844 12.8682C7.69374 11.5847 8.3239 10.4058 9.24924 9.48044C10.1746 8.5551 11.3535 7.92494 12.637 7.66964C13.9205 7.41434 15.2508 7.54537 16.4598 8.04616C17.6688 8.54695 18.7022 9.395 19.4292 10.4831C20.1563 11.5712 20.5443 12.8504 20.5443 14.159C20.5424 15.9132 19.8447 17.595 18.6043 18.8355C17.3638 20.0759 15.682 20.7736 13.9278 20.7755Z" fill="#0A9F30"/>
<path d="M26.6351 11.8449H24.35C24.0833 10.631 23.6036 9.47384 22.9333 8.42715L24.55 6.81215C24.6036 6.75863 24.6461 6.69508 24.6751 6.62512C24.7041 6.55516 24.719 6.48018 24.719 6.40444C24.719 6.32871 24.7041 6.25373 24.6751 6.18377C24.6461 6.11381 24.6036 6.05026 24.55 5.99674L22.0922 3.53931C21.9841 3.43128 21.8375 3.37059 21.6847 3.37059C21.5318 3.37059 21.3853 3.43128 21.2771 3.53931L19.6612 5.15399C18.6145 4.4836 17.4574 4.00397 16.2434 3.73732V1.45253C16.2434 1.3768 16.2285 1.30181 16.1996 1.23184C16.1706 1.16187 16.1281 1.09829 16.0746 1.04475C16.021 0.991202 15.9575 0.948735 15.8875 0.919776C15.8175 0.890817 15.7425 0.875933 15.6668 0.875977H12.191C12.1153 0.875933 12.0403 0.890817 11.9703 0.919776C11.9004 0.948735 11.8368 0.991202 11.7832 1.04475C11.7297 1.09829 11.6872 1.16187 11.6583 1.23184C11.6293 1.30181 11.6144 1.3768 11.6145 1.45253V3.73765C10.4005 4.00429 9.24333 4.48393 8.19668 5.15432L6.58168 3.53767C6.47357 3.42963 6.32698 3.36894 6.17414 3.36894C6.0213 3.36894 5.87471 3.42963 5.7666 3.53767L3.30885 5.99509C3.25526 6.04861 3.21275 6.11216 3.18375 6.18212C3.15475 6.25208 3.13982 6.32707 3.13982 6.4028C3.13982 6.47853 3.15475 6.55352 3.18375 6.62347C3.21275 6.69343 3.25526 6.75698 3.30885 6.8105L4.92352 8.42649C4.25322 9.47318 3.77359 10.6303 3.50685 11.8443H1.22206C1.14633 11.8442 1.07134 11.8591 1.00137 11.8881C0.931401 11.917 0.867826 11.9595 0.814279 12.0131C0.760733 12.0666 0.718266 12.1302 0.689307 12.2002C0.660348 12.2701 0.645465 12.3451 0.645508 12.4208V15.8966C0.645465 15.9723 0.660348 16.0473 0.689307 16.1173C0.718266 16.1873 0.760733 16.2509 0.814279 16.3044C0.867826 16.3579 0.931401 16.4004 1.00137 16.4294C1.07134 16.4583 1.14633 16.4732 1.22206 16.4732H3.50718C3.77392 17.6871 4.25355 18.8443 4.92385 19.891L3.30753 21.5076C3.25394 21.5611 3.21144 21.6247 3.18243 21.6946C3.15343 21.7646 3.1385 21.8396 3.1385 21.9153C3.1385 21.9911 3.15343 22.066 3.18243 22.136C3.21144 22.206 3.25394 22.2695 3.30753 22.323L5.76528 24.7804C5.8734 24.8885 6.01998 24.9492 6.17282 24.9492C6.32566 24.9492 6.47225 24.8885 6.58036 24.7804L8.19602 23.1641C9.24267 23.8345 10.3998 24.3142 11.6138 24.5808V26.8659C11.6138 26.9416 11.6287 27.0166 11.6576 27.0866C11.6866 27.1566 11.729 27.2202 11.7826 27.2737C11.8361 27.3272 11.8997 27.3697 11.9697 27.3987C12.0397 27.4276 12.1146 27.4425 12.1904 27.4425H15.6662C15.7419 27.4425 15.8169 27.4276 15.8868 27.3987C15.9568 27.3697 16.0204 27.3272 16.0739 27.2737C16.1275 27.2202 16.1699 27.1566 16.1989 27.0866C16.2279 27.0166 16.2427 26.9416 16.2427 26.8659V24.5805C17.4567 24.3138 18.6138 23.8342 19.6605 23.1638L21.2771 24.7801C21.3853 24.8882 21.5318 24.9488 21.6847 24.9488C21.8375 24.9488 21.9841 24.8882 22.0922 24.7801L24.55 22.3227C24.6036 22.2692 24.6461 22.2056 24.6751 22.1357C24.7041 22.0657 24.719 21.9907 24.719 21.915C24.719 21.8393 24.7041 21.7643 24.6751 21.6943C24.6461 21.6244 24.6036 21.5608 24.55 21.5073L22.9337 19.8916C23.604 18.8449 24.0836 17.6878 24.3503 16.4738H26.6355C26.7112 16.4739 26.7862 16.459 26.8561 16.43C26.9261 16.4011 26.9897 16.3586 27.0432 16.3051C27.0968 16.2515 27.1392 16.1879 27.1682 16.118C27.1972 16.048 27.212 15.973 27.212 15.8973V12.4215C27.212 12.3457 27.1971 12.2707 27.1682 12.2007C27.1392 12.1307 27.0967 12.0672 27.0431 12.0136C26.9895 11.9601 26.9259 11.9176 26.8559 11.8886C26.7859 11.8597 26.7109 11.8449 26.6351 11.8449ZM26.0586 15.3201H23.8756C23.7397 15.3201 23.6082 15.3681 23.5043 15.4556C23.4004 15.5432 23.3307 15.6646 23.3076 15.7984C23.0703 17.1786 22.5277 18.4882 21.7193 19.6317C21.6411 19.7427 21.6047 19.8778 21.6164 20.0132C21.628 20.1485 21.6871 20.2753 21.7832 20.3713L23.327 21.9152L21.6847 23.5575L20.1405 22.0137C20.0445 21.9177 19.9176 21.8586 19.7823 21.8469C19.6471 21.8352 19.512 21.8716 19.4009 21.9497C18.2575 22.758 16.9479 23.3008 15.568 23.5384C15.4341 23.5615 15.3127 23.6312 15.2252 23.7351C15.1376 23.839 15.0896 23.9705 15.0896 24.1064V26.289H12.7676V24.1064C12.7675 23.9705 12.7195 23.839 12.632 23.7351C12.5445 23.6312 12.4231 23.5615 12.2892 23.5384C10.9092 23.3008 9.59973 22.758 8.45629 21.9497C8.34521 21.8716 8.21012 21.8352 8.07483 21.8469C7.93954 21.8586 7.81271 21.9177 7.71666 22.0137L6.17249 23.5575L4.53015 21.9152L6.07399 20.3713C6.17005 20.2753 6.22913 20.1485 6.24083 20.0132C6.25252 19.8778 6.21607 19.7427 6.1379 19.6317C5.32952 18.4882 4.78686 17.1786 4.54958 15.7984C4.52645 15.6646 4.45678 15.5432 4.35286 15.4556C4.24895 15.3681 4.11746 15.3201 3.9816 15.3201H1.79861V12.998H3.9816C4.11746 12.998 4.24895 12.95 4.35286 12.8625C4.45678 12.775 4.52645 12.6536 4.54958 12.5197C4.78686 11.1396 5.32952 9.82991 6.1379 8.68643C6.21607 8.57537 6.25252 8.44027 6.24083 8.30496C6.22913 8.16965 6.17005 8.04281 6.07399 7.9468L4.53015 6.40296L6.17249 4.76061L7.71666 6.30445C7.81264 6.40058 7.93948 6.4597 8.07481 6.4714C8.21014 6.48309 8.34525 6.4466 8.45629 6.36837C9.59973 5.56007 10.9092 5.01731 12.2892 4.77972C12.4231 4.75659 12.5445 4.68692 12.632 4.583C12.7195 4.47908 12.7675 4.3476 12.7676 4.21174V2.02908H15.0896V4.21174C15.0896 4.3476 15.1376 4.47908 15.2252 4.583C15.3127 4.68692 15.4341 4.75659 15.568 4.77972C16.9479 5.01731 18.2575 5.56007 19.4009 6.36837C19.5119 6.4466 19.647 6.48309 19.7824 6.4714C19.9177 6.4597 20.0445 6.40058 20.1405 6.30445L21.6847 4.76061L23.327 6.40296L21.7832 7.9468C21.6871 8.04281 21.628 8.16965 21.6164 8.30496C21.6047 8.44027 21.6411 8.57537 21.7193 8.68643C22.5277 9.82991 23.0703 11.1396 23.3076 12.5197C23.3307 12.6536 23.4004 12.775 23.5043 12.8625C23.6082 12.95 23.7397 12.998 23.8756 12.998H26.0586V15.3201Z" fill="#0A9F30"/>
<path d="M14.7125 9.46766L15.0723 9.18334C15.1322 9.1366 15.1824 9.07846 15.2198 9.01226C15.2572 8.94605 15.2812 8.8731 15.2903 8.7976C15.2994 8.7221 15.2935 8.64554 15.2729 8.57234C15.2523 8.49913 15.2174 8.43073 15.1703 8.37106C15.1231 8.31139 15.0646 8.26164 14.9982 8.22468C14.9317 8.18771 14.8586 8.16426 14.783 8.15567C14.7075 8.14708 14.631 8.15352 14.5579 8.17463C14.4848 8.19574 14.4167 8.23109 14.3573 8.27865L12.7845 9.5217C12.7162 9.57567 12.661 9.6444 12.6231 9.72274C12.5851 9.80108 12.5654 9.887 12.5654 9.97404C12.5654 10.0611 12.5851 10.147 12.6231 10.2253C12.661 10.3037 12.7162 10.3724 12.7845 10.4264L14.3567 11.6694C14.416 11.717 14.4842 11.7523 14.5572 11.7735C14.6303 11.7946 14.7068 11.801 14.7824 11.7924C14.8579 11.7838 14.9311 11.7604 14.9975 11.7234C15.064 11.6864 15.1225 11.6367 15.1696 11.577C15.2168 11.5174 15.2516 11.449 15.2722 11.3757C15.2928 11.3025 15.2988 11.226 15.2897 11.1505C15.2805 11.075 15.2566 11.002 15.2192 10.9358C15.1817 10.8696 15.1316 10.8115 15.0716 10.7647L15.012 10.7176C15.6035 10.9039 16.137 11.2395 16.5611 11.692C16.9851 12.1446 17.2854 12.6987 17.4328 13.3011C17.5803 13.9035 17.5701 14.5337 17.4031 15.1309C17.236 15.7282 16.9179 16.2723 16.4794 16.7108C16.3712 16.819 16.3105 16.9658 16.3106 17.1187C16.3106 17.2717 16.3715 17.4184 16.4797 17.5265C16.5879 17.6347 16.7347 17.6954 16.8876 17.6953C17.0406 17.6953 17.1873 17.6344 17.2954 17.5262C17.914 16.9081 18.3502 16.1314 18.5561 15.2815C18.7621 14.4317 18.7298 13.5415 18.4629 12.7088C18.196 11.876 17.7048 11.133 17.0431 10.5612C16.3815 9.98943 15.5751 9.61107 14.7125 9.46766Z" fill="#0A9F30"/>
</svg>
