<svg width="39" height="33" viewBox="0 0 39 33" fill="none" xmlns="http://www.w3.org/2000/svg">
<path opacity="0.25" d="M15.5004 0.30957L18.9909 4.76288C13.013 9.85812 9.94382 13.9704 9.78334 17.0998C14.3971 18.183 16.704 20.7908 16.704 24.9232C16.704 27.1699 15.9217 29.0355 14.357 30.5199C12.8325 31.9642 11.0271 32.6864 8.94082 32.6864C6.65398 32.6864 4.74828 31.8037 3.22373 30.0385C1.73929 28.2732 0.99707 26.0265 0.99707 23.2983C0.99707 15.3144 5.83152 7.65152 15.5004 0.30957ZM34.8784 0.30957L38.429 4.76288C32.411 9.85812 29.3217 13.9704 29.1613 17.0998C33.7751 18.183 36.082 20.7908 36.082 24.9232C36.082 27.1699 35.3197 29.0355 33.7951 30.5199C32.2706 31.9642 30.4652 32.6864 28.3789 32.6864C25.9717 32.6864 24.046 31.7837 22.6017 29.9783C21.1573 28.1729 20.4352 25.9462 20.4352 23.2983C20.4352 15.5953 25.2496 7.93236 34.8784 0.30957Z" fill="#0A9F30"/>
</svg>
