<svg width="33" height="20" viewBox="0 0 33 20" fill="none" xmlns="http://www.w3.org/2000/svg">
<path d="M31.4927 8.37279L23.6048 3.34934C22.9806 2.94877 22.1628 3.13282 21.7646 3.76075C21.3665 4.38868 21.5602 5.21148 22.1735 5.61206L28.372 9.56369L22.2489 13.8726C21.6462 14.2948 21.4956 15.1284 21.926 15.7347C22.1843 16.1028 22.5932 16.3085 23.0237 16.3085C23.2927 16.3085 23.551 16.2327 23.7877 16.0703L31.5465 10.603C31.9124 10.3432 32.1276 9.92096 32.1169 9.47708C32.1061 9.02237 31.8694 8.61097 31.4927 8.37279Z" fill="#0A9F30"/>
<path d="M10.8527 3.76075C10.4545 3.13282 9.63664 2.94877 9.01249 3.34934L1.12453 8.37279C0.747893 8.61097 0.521908 9.02237 0.500385 9.47708C0.489624 9.92096 0.704848 10.354 1.07073 10.603L8.82955 16.0703C9.0663 16.2327 9.32456 16.3085 9.59359 16.3085C10.0133 16.3085 10.433 16.1136 10.6912 15.7347C11.1109 15.1284 10.971 14.2948 10.3576 13.8726L4.23452 9.56369L10.433 5.61206C11.0571 5.21148 11.2401 4.38868 10.8527 3.76075Z" fill="#0A9F30"/>
<path d="M14.016 19.3182C14.5971 19.3182 15.1352 18.9285 15.2966 18.3439L19.8809 1.93107C20.0746 1.21653 19.6656 0.480339 18.9554 0.274638C18.2452 0.0797633 17.5134 0.491165 17.3089 1.20571L12.7247 17.6185C12.5202 18.333 12.9399 19.0692 13.6501 19.2749C13.7793 19.2966 13.8976 19.3182 14.016 19.3182Z" fill="#0A9F30"/>
</svg>
