<svg width="17" height="16" viewBox="0 0 17 16" fill="none" xmlns="http://www.w3.org/2000/svg">
<path d="M14.8473 9.83813C14.827 9.81857 14.827 9.81857 14.8066 9.79901C14.766 9.77945 13.9739 9.21221 12.8974 9.44693C12.0241 9.62297 11.2523 10.2489 10.6023 11.2856C10.0336 11.0313 8.93687 10.464 7.59637 9.29045C6.07307 7.88214 5.34189 6.70854 5.01692 6.10219C6.07307 5.41759 6.68239 4.65475 6.82457 3.81368C7.00736 2.777 6.39804 2.03373 6.37773 1.99461C6.35742 1.97505 6.35742 1.97505 6.33711 1.95549C3.33114 -0.841578 1.46256 0.175537 1.40163 0.214656C1.36101 0.234216 1.3407 0.253776 1.32039 0.273336C1.25945 0.312456 0.0205059 1.46649 0.000195305 3.63764C-0.0201153 6.12175 1.5438 8.84057 4.65133 11.7354C4.67164 11.755 4.67164 11.7746 4.69195 11.7746C7.71824 14.5912 10.5211 15.9995 13.0396 15.9995C13.1412 15.9995 13.2427 15.9995 13.324 15.9995C15.5785 15.9017 16.7158 14.6499 16.7565 14.6107C16.7768 14.5912 16.7971 14.5716 16.8174 14.5325C16.858 14.4543 17.8532 12.6156 14.8473 9.83813ZM13.263 15.178C10.9679 15.2562 8.226 13.887 5.32158 11.2269C5.32158 11.2073 5.30127 11.2073 5.30127 11.1878C2.39685 8.48849 0.853242 5.88703 0.873553 3.6572C0.873553 2.03373 1.68598 1.11441 1.86877 0.918813C2.1125 0.821013 3.47331 0.449375 5.72779 2.52272C5.78873 2.62052 6.09339 3.0704 5.97152 3.67676C5.84966 4.34179 5.26065 4.98727 4.24512 5.59363C4.06232 5.69143 3.98108 5.92615 4.06232 6.10219C4.26543 6.59118 4.91537 7.82346 6.47929 9.38825C6.4996 9.42737 6.51991 9.46649 6.56053 9.48605C6.7027 9.62297 6.84488 9.75989 7.00736 9.87725C7.00736 9.87725 7.00736 9.87725 7.02767 9.89681C8.77439 11.4029 10.1149 11.9897 10.6227 12.1853C10.8258 12.2636 11.0492 12.1853 11.1507 11.9897C11.7397 10.9922 12.3694 10.4054 13.0599 10.2489C13.6896 10.112 14.1567 10.3858 14.2583 10.4445C16.4924 12.5178 16.1471 13.8479 16.0659 14.0826C15.8831 14.2978 14.9488 15.0997 13.263 15.178Z" fill="#333333"/>
</svg>
