<svg width="37" height="33" viewBox="0 0 37 33" fill="none" xmlns="http://www.w3.org/2000/svg">
<path d="M16.2456 32.5088C11.9075 32.5088 7.82939 30.8217 4.76152 27.7447C1.68622 24.6752 0 20.5949 0 16.2544C0 11.9139 1.68622 7.83363 4.76152 4.76409C7.82939 1.68713 11.9075 0 16.2456 0C22.1585 0 27.6109 3.21818 30.4708 8.39848C30.6193 8.66604 30.5228 9.00793 30.2553 9.15657C29.9879 9.30522 29.6462 9.2086 29.4977 8.94104C26.8309 4.11005 21.75 1.11484 16.2456 1.11484C7.90368 1.11484 1.11424 7.90795 1.11424 16.2544C1.11424 24.6009 7.90368 31.394 16.2456 31.394C19.6255 31.394 22.8196 30.3014 25.4938 28.2427C25.739 28.0569 26.0881 28.1015 26.2738 28.3393C26.4595 28.5846 26.4149 28.9339 26.1772 29.1197C23.3099 31.3345 19.878 32.5088 16.2456 32.5088Z" fill="#0A9F30"/>
<path d="M16.2456 32.5088C13.9131 32.5088 11.744 30.7696 10.1544 27.6035C8.62417 24.5637 7.77734 20.528 7.77734 16.2544C7.77734 11.9808 8.61674 7.94511 10.1544 4.90531C11.7515 1.74659 13.9131 0 16.2456 0C18.2661 0 20.2123 1.35268 21.7276 3.80533C21.8911 4.06546 21.8093 4.40734 21.5419 4.57085C21.2819 4.73436 20.9402 4.65261 20.7768 4.38505C19.4769 2.27428 17.8649 1.10741 16.2456 1.10741C14.3514 1.10741 12.5463 2.63103 11.1498 5.39584C9.69384 8.28699 8.89158 12.1369 8.89158 16.247C8.89158 20.357 9.69384 24.2069 11.1498 27.0981C12.5463 29.8629 14.3514 31.3865 16.2456 31.3865C17.3078 31.3865 18.5483 30.7028 19.6477 29.5136C20.814 28.2501 21.7128 26.5481 22.1808 24.7272C22.255 24.4299 22.5596 24.2515 22.8567 24.3259C23.1539 24.4002 23.3321 24.7049 23.2579 25.0022C22.1733 29.2163 19.0906 32.5088 16.2456 32.5088Z" fill="#0A9F30"/>
<path d="M4.60592 27.336C4.41278 27.336 4.21965 27.232 4.11565 27.0536C3.96709 26.786 4.06365 26.4441 4.33107 26.2955C7.38409 24.5935 11.7222 23.6199 16.2386 23.6199C18.5339 23.6199 20.755 23.8577 22.8349 24.3408C23.132 24.4077 23.3251 24.705 23.2509 25.0097C23.184 25.307 22.8869 25.5002 22.5823 25.4259C20.5841 24.9651 18.4448 24.7347 16.2312 24.7347C11.9005 24.7347 7.7555 25.6563 4.86591 27.2691C4.79162 27.3137 4.70249 27.336 4.60592 27.336Z" fill="#0A9F30"/>
<path d="M11.3948 8.50992C11.3651 8.50992 11.3353 8.50992 11.3056 8.50248C8.6463 8.06398 6.23212 7.27616 4.33791 6.21334C4.07049 6.0647 3.97392 5.72281 4.12249 5.45525C4.27105 5.18769 4.61275 5.09107 4.88017 5.23971C6.67038 6.23564 8.95086 6.9863 11.4839 7.40251C11.7885 7.45453 11.9965 7.73696 11.9445 8.04168C11.8999 8.31668 11.6622 8.50992 11.3948 8.50992Z" fill="#0A9F30"/>
<path d="M16.2456 32.5089C15.941 32.5089 15.6885 32.2562 15.6885 31.9515V21.3976C15.6885 21.0929 15.941 20.8402 16.2456 20.8402C16.5502 20.8402 16.8027 21.0929 16.8027 21.3976V31.9515C16.8027 32.2562 16.5502 32.5089 16.2456 32.5089Z" fill="#0A9F30"/>
<path d="M16.2456 4.48167C15.941 4.48167 15.6885 4.22897 15.6885 3.92424V0.557421C15.6885 0.252698 15.941 0 16.2456 0C16.5502 0 16.8027 0.252698 16.8027 0.557421V3.92424C16.8027 4.2364 16.5502 4.48167 16.2456 4.48167Z" fill="#0A9F30"/>
<path d="M11.395 16.8117H0.55712C0.252561 16.8117 0 16.559 0 16.2543C0 15.9496 0.252561 15.6969 0.55712 15.6969H11.395C11.6995 15.6969 11.9521 15.9496 11.9521 16.2543C11.9521 16.559 11.6995 16.8117 11.395 16.8117Z" fill="#0A9F30"/>
<path d="M22.404 19.7105H15.6815C14.4187 19.7105 13.3936 18.6848 13.3936 17.4213V8.33162C13.3936 7.06814 14.4187 6.04248 15.6815 6.04248H24.7737C26.0365 6.04248 27.0616 7.06814 27.0616 8.33162V10.3383C27.0616 10.6431 26.809 10.8958 26.5044 10.8958C26.1999 10.8958 25.9473 10.6431 25.9473 10.3383V8.33162C25.9473 7.68502 25.4199 7.15732 24.7737 7.15732H15.6815C15.0352 7.15732 14.5078 7.68502 14.5078 8.33162V17.4287C14.5078 18.0754 15.0352 18.603 15.6815 18.603H22.404C22.7086 18.603 22.9612 18.8557 22.9612 19.1605C22.9612 19.4578 22.7086 19.7105 22.404 19.7105Z" fill="#0A9F30"/>
<path d="M26.7639 27.2095C26.6896 27.2095 26.6079 27.1947 26.5336 27.1575C26.3331 27.0683 26.2068 26.8677 26.2068 26.6521V24.9204H25.6199C24.3571 24.9204 23.332 23.8948 23.332 22.6313V13.5416C23.332 12.2781 24.3571 11.2524 25.6199 11.2524H34.7121C35.9749 11.2524 37 12.2781 37 13.5416V22.6387C37 23.9022 35.9749 24.9278 34.7121 24.9278H29.5792L27.1353 27.0758C27.0239 27.165 26.8976 27.2095 26.7639 27.2095ZM25.6199 12.3673C24.9737 12.3673 24.4463 12.895 24.4463 13.5416V22.6387C24.4463 23.2853 24.9737 23.813 25.6199 23.813H26.7639C27.0684 23.813 27.321 24.0657 27.321 24.3704V25.4184L28.9998 23.9393C29.1038 23.8502 29.2301 23.7981 29.3638 23.7981H34.7047C35.351 23.7981 35.8784 23.2704 35.8784 22.6238V13.5416C35.8784 12.895 35.351 12.3673 34.7047 12.3673H25.6199Z" fill="#0A9F30"/>
<path d="M24.06 10.9999H16.3569C16.0524 10.9999 15.7998 10.7472 15.7998 10.4424C15.7998 10.1377 16.0524 9.88501 16.3569 9.88501H24.06C24.3646 9.88501 24.6172 10.1377 24.6172 10.4424C24.6172 10.7546 24.3646 10.9999 24.06 10.9999Z" fill="#0A9F30"/>
<path d="M20.2046 10.9999C19.9 10.9999 19.6475 10.7472 19.6475 10.4424V8.96343C19.6475 8.6587 19.9 8.40601 20.2046 8.40601C20.5091 8.40601 20.7617 8.6587 20.7617 8.96343V10.4424C20.7617 10.7546 20.5166 10.9999 20.2046 10.9999Z" fill="#0A9F30"/>
<path d="M16.6987 17.2728C16.4758 17.2728 16.2604 17.139 16.1787 16.916C16.0673 16.6261 16.2084 16.3066 16.4981 16.1951C21.2745 14.3593 21.8687 10.5465 21.8762 10.5094C21.9207 10.2047 22.203 9.99655 22.5076 10.0337C22.8121 10.0783 23.0276 10.3607 22.983 10.6655C22.9533 10.8513 22.2847 15.162 16.9067 17.2356C16.8324 17.2653 16.7655 17.2728 16.6987 17.2728Z" fill="#0A9F30"/>
<path d="M23.6144 17.2728C23.5475 17.2728 23.4807 17.2579 23.4138 17.2356C20.1602 15.9795 18.526 13.6458 18.1026 12.9546C17.9392 12.6945 18.0209 12.3526 18.2883 12.1891C18.5483 12.0256 18.89 12.1073 19.0534 12.3749C19.4323 12.9843 20.8882 15.0728 23.8149 16.1951C24.1046 16.3066 24.2458 16.6262 24.1344 16.916C24.0452 17.139 23.8372 17.2728 23.6144 17.2728Z" fill="#0A9F30"/>
<path d="M32.8847 21.9995C32.6619 21.9995 32.4539 21.8657 32.3648 21.6502L30.1586 16.2098L27.9449 21.6502C27.8261 21.9326 27.5067 22.0738 27.217 21.9549C26.9347 21.836 26.7936 21.5164 26.9124 21.2266L29.6386 14.5152C29.7203 14.3071 29.9283 14.1659 30.1511 14.1659C30.3814 14.1659 30.582 14.2997 30.6637 14.5152L33.3899 21.2266C33.5087 21.509 33.3676 21.836 33.0853 21.9549C33.0259 21.9847 32.959 21.9995 32.8847 21.9995Z" fill="#0A9F30"/>
<path d="M31.9339 19.8144H28.3237C28.0192 19.8144 27.7666 19.5617 27.7666 19.257C27.7666 18.9523 28.0192 18.6996 28.3237 18.6996H31.9339C32.2384 18.6996 32.491 18.9523 32.491 19.257C32.491 19.5692 32.2384 19.8144 31.9339 19.8144Z" fill="#0A9F30"/>
</svg>
