<svg width="37" height="37" viewBox="0 0 37 37" fill="none" xmlns="http://www.w3.org/2000/svg">
<path d="M19.3387 18.6881C19.1588 18.6881 18.9789 18.6009 18.8889 18.5138C18.6191 18.2523 18.6191 17.9037 18.8889 17.6423L21.5878 15.0278C21.8577 14.7663 22.2175 14.7663 22.4874 15.0278C22.7573 15.2892 22.7573 15.6378 22.4874 15.8993L19.7885 18.5138C19.6986 18.6881 19.5187 18.6881 19.3387 18.6881Z" fill="#0A9F30"/>
<path d="M22.9369 16.3351C22.4871 16.3351 22.0373 16.1608 21.6775 15.8122C21.3176 15.4636 21.1377 15.0278 21.1377 14.5921C21.1377 14.1563 21.3176 13.7206 21.6775 13.372L24.3763 10.7575C25.006 10.1474 26.1755 10.1474 26.8952 10.7575C27.6149 11.4547 27.6149 12.5005 26.8952 13.1977L24.1964 15.8122C23.8365 16.1608 23.3867 16.3351 22.9369 16.3351ZM25.6358 11.5418C25.5458 11.5418 25.3659 11.629 25.2759 11.7161L22.5771 14.3306C22.4871 14.4178 22.3972 14.5049 22.3972 14.6792C22.3972 14.7664 22.4871 14.9407 22.5771 15.0278C22.757 15.2021 23.1168 15.2021 23.2968 15.0278L25.9956 12.4133C26.1755 12.239 26.1755 11.8904 25.9956 11.7161C25.9056 11.629 25.7257 11.5418 25.6358 11.5418Z" fill="#0A9F30"/>
<path d="M26.0858 12.1518C25.9059 12.1518 25.726 12.0647 25.636 11.9775C25.3661 11.7161 25.3661 11.3675 25.636 11.106L30.9437 5.96415C31.2136 5.7027 31.5735 5.7027 31.8433 5.96415C32.1132 6.2256 32.1132 6.5742 31.8433 6.83565L26.5356 11.9775C26.4457 12.1518 26.2657 12.1518 26.0858 12.1518Z" fill="#0A9F30"/>
<path d="M33.2831 5.26699C33.1032 5.26699 32.9232 5.17984 32.8333 5.09269C32.5634 4.83124 32.5634 4.48264 32.8333 4.22119L33.373 3.69828C33.6429 3.43683 34.0028 3.43683 34.2727 3.69828C34.5425 3.95974 34.5425 4.30834 34.2727 4.56979L33.7329 5.09269C33.553 5.17984 33.373 5.26699 33.2831 5.26699Z" fill="#0A9F30"/>
<path d="M30.4043 9.62449C29.8646 9.62449 29.3248 9.53734 28.785 9.45019C28.6051 9.36304 28.4252 9.18874 28.3352 8.92729C27.7955 6.83569 28.3352 4.56978 29.9545 3.00108C30.1345 2.91393 30.3144 2.82678 30.4943 2.82678C32.9233 3.08823 34.8124 4.91838 35.0823 7.27144C35.0823 7.44574 35.0823 7.62004 34.9024 7.79434C33.7329 8.92729 32.1136 9.62449 30.4043 9.62449ZM29.5047 8.23009C31.0341 8.57869 32.6534 8.14294 33.7329 7.09714C33.463 5.52843 32.2036 4.39548 30.5843 4.04688C29.5947 5.26698 29.2348 6.74854 29.5047 8.23009Z" fill="#0A9F30"/>
<path d="M19.6726 25.8678C19.168 25.9358 18.5494 25.9196 18.0316 25.8898C13.6747 25.5807 10.5111 21.9258 10.8664 17.6974C11.2217 13.4691 15.0169 10.3701 19.3739 10.6792C20.3084 10.7524 21.1553 10.937 22.0284 11.3171C22.3575 11.4718 22.5111 11.8493 22.3619 12.2675C22.1996 12.588 21.8091 12.7401 21.3791 12.5989C20.7209 12.2894 19.975 12.0913 19.1545 12.1022C15.6312 11.8799 12.4765 14.395 12.2178 17.8141C11.959 21.2331 14.5258 24.2716 18.0491 24.4939C21.5724 24.7162 24.613 22.1169 24.9727 18.6843C25.0824 17.9728 24.9771 17.1907 24.784 16.5199C24.6304 16.1425 24.8805 15.7107 25.2842 15.6563C25.6747 15.5042 26.1178 15.7431 26.1705 16.1342C26.3899 17.0004 26.5084 17.8803 26.425 18.7873C26.2057 22.4997 23.3056 25.3786 19.6726 25.8678Z" fill="#0A9F30"/>
<path d="M20.7521 33.8843C11.8715 35.0802 3.65761 29.0198 2.49905 20.4167C1.34049 11.8137 7.65852 3.79629 16.5391 2.60036C20.7776 2.02958 24.924 3.06376 28.3332 5.49116C28.4341 5.47757 28.4473 5.57533 28.5614 5.6595C28.6755 5.74368 28.6755 5.74368 28.7896 5.82785C29.1318 6.08036 29.0835 6.485 28.8203 6.81906C28.557 7.15312 28.1402 7.10972 27.798 6.8572C27.7848 6.75944 27.6839 6.77303 27.5698 6.68886C27.4557 6.60468 27.4557 6.60468 27.3416 6.52051C24.3887 4.4298 20.5582 3.45261 16.7234 3.96903C8.65016 5.05624 2.85864 12.4055 3.91187 20.2265C4.9651 28.0475 12.4945 33.6028 20.5677 32.5156C28.641 31.4284 34.4457 24.1769 33.3793 16.2582C33.0502 13.8141 32.1287 11.5494 30.6281 9.56167C30.3867 9.29556 30.4218 8.79316 30.7992 8.54327C31.0756 8.30698 31.5933 8.33679 31.8478 8.70066C33.4757 10.8703 34.5376 13.4147 34.893 16.0543C35.9507 24.671 29.6327 32.6884 20.7521 33.8843Z" fill="#0A9F30"/>
<path d="M20.2119 29.8761C13.6523 30.7594 7.59287 26.2006 6.73711 19.846C5.88136 13.4915 10.5321 7.58978 17.0917 6.70642C20.321 6.27154 23.4055 7.05057 26.0294 8.98653C26.1435 9.07071 26.2707 9.25264 26.2971 9.44816C26.3497 9.83921 26.0865 10.1733 25.6828 10.2276C25.481 10.2548 25.266 10.1842 25.0378 10.0159C22.7693 8.43021 20.0007 7.70816 17.276 8.0751C11.5238 8.84973 7.39951 14.0833 8.14994 19.6557C8.90037 25.2282 14.2622 29.1843 20.0144 28.4097C25.7666 27.635 29.8909 22.4015 29.1404 16.829C28.9561 15.4603 28.4691 14.1324 27.8065 13.0272C27.552 12.6634 27.7012 12.2451 28.0917 12.093C28.469 11.8431 28.899 11.9843 29.0526 12.3617C29.8556 13.7466 30.3558 15.1723 30.5664 16.7365C31.409 22.9933 26.7714 28.9927 20.2119 29.8761Z" fill="#0A9F30"/>
<path d="M19.093 21.5664C17.1756 21.8246 15.4644 20.562 15.2142 18.7045C14.9641 16.847 16.2803 15.1768 18.1977 14.9186C20.1151 14.6603 21.8264 15.9229 22.0765 17.7804C22.3266 19.6379 21.0104 21.3082 19.093 21.5664ZM18.3821 16.2872C17.272 16.4367 16.4822 17.4389 16.627 18.5143C16.7719 19.5897 17.7986 20.3472 18.9087 20.1977C20.0187 20.0482 20.8085 19.0461 20.6637 17.9707C20.5189 16.8953 19.4921 16.1377 18.3821 16.2872Z" fill="#0A9F30"/>
</svg>
