<svg width="42" height="21" viewBox="0 0 42 21" fill="none" xmlns="http://www.w3.org/2000/svg">
<path d="M39.3086 5.03161C38.9191 5.03161 38.5295 5.13644 38.1754 5.31115V4.96173C38.1754 3.599 37.0422 2.44592 35.5902 2.44592C35.2007 2.44592 34.8111 2.55075 34.457 2.72546V2.51581C34.4924 1.11814 33.3592 0 31.9427 0C30.5616 0 29.3929 1.11814 29.3929 2.51581V7.54742L12.5717 7.54742V2.51581C12.5717 1.11814 11.403 0 9.98651 0C8.6054 0 7.43676 1.11814 7.43676 2.51581V2.7604C7.08263 2.58569 6.69309 2.48087 6.26813 2.48087C4.88702 2.48087 3.71838 3.599 3.71838 4.99667V5.34609C3.36425 5.17138 2.9747 5.06656 2.54975 5.06656C1.16863 5.06656 0 6.18469 0 7.58236L0 13.4176C0 14.7804 1.13322 15.9334 2.54975 15.9334H2.58516C2.9747 15.9334 3.36425 15.8286 3.71838 15.6539V16.0033C3.71838 17.3661 4.8516 18.5191 6.26813 18.5191H6.30354C6.69309 18.5191 7.08263 18.4143 7.43676 18.2396V18.4842C7.43676 19.8469 8.56998 21 9.98651 21H10.0219C11.403 21 12.5717 19.8819 12.5717 18.4842L12.5717 12.5441L29.4283 12.5441V18.3794C29.4283 19.7421 30.5616 20.8952 31.9781 20.8952L32.0135 20.8952C33.3946 20.8952 34.5632 19.777 34.5632 18.3794V18.1697C34.9174 18.3444 35.2715 18.4493 35.6965 18.4493H35.7319C37.113 18.4493 38.2816 17.3311 38.2816 15.9334V15.584C38.6357 15.7587 38.9899 15.8636 39.4148 15.8636H39.4503C40.8314 15.8636 42 14.7454 42 13.3478V7.54742C41.8938 6.14975 40.7605 5.03161 39.3086 5.03161ZM2.65599 14.4659H2.62057C1.98314 14.4659 1.48735 13.9767 1.48735 13.3827L1.48735 7.54742C1.48735 6.95341 1.98314 6.42928 2.65599 6.42928C3.25801 6.42928 3.78921 6.91847 3.78921 7.54742L3.78921 13.3827C3.75379 13.9767 3.25801 14.4659 2.65599 14.4659ZM6.33896 17.0516H6.30354C5.70152 17.0516 5.17032 16.5624 5.17032 15.9334V13.3827L5.17032 7.54742V4.99667C5.17032 4.40266 5.66611 3.87854 6.33896 3.87854C6.94098 3.87854 7.47218 4.36772 7.47218 4.99667L7.47218 15.9684C7.43676 16.5275 6.94098 17.0516 6.33896 17.0516ZM11.1551 18.4143C11.1551 19.0083 10.6594 19.5324 10.0219 19.5324H9.98651C9.38449 19.5324 8.85329 19.0433 8.85329 18.4143L8.85329 15.9334V4.96173V2.51581C8.85329 1.9218 9.34907 1.39767 10.0219 1.39767C10.6239 1.39767 11.1551 1.88686 11.1551 2.51581L11.1551 18.4143ZM29.3929 11.1464L12.6779 11.1464V8.91015L29.3929 8.91015V11.1464ZM33.0759 18.4143C33.0759 19.0083 32.5801 19.5324 31.9427 19.5324C31.3406 19.5324 30.8094 19.0433 30.8094 18.4143V2.51581C30.8094 1.9218 31.3052 1.39767 31.9781 1.39767C32.5801 1.39767 33.1113 1.88686 33.1113 2.51581V4.99667V15.9684V18.4143H33.0759ZM36.7943 15.9334C36.7943 16.5275 36.2985 17.0516 35.661 17.0516H35.6256C35.0236 17.0516 34.4924 16.5624 34.4924 15.9334V4.96173C34.4924 4.36772 34.9882 3.84359 35.661 3.84359C36.2631 3.84359 36.7943 4.33278 36.7943 4.96173V7.51248V13.3478V15.9334ZM40.4772 13.3827C40.4772 13.9767 39.9814 14.5008 39.344 14.5008H39.3086C38.7066 14.5008 38.1754 14.0116 38.1754 13.3827V7.54742C38.1754 6.95341 38.6712 6.42928 39.344 6.42928C39.946 6.42928 40.4772 6.91847 40.4772 7.54742V13.3827Z" fill="#0A9F30"/>
</svg>
