<svg width="25" height="33" viewBox="0 0 25 33" fill="none" xmlns="http://www.w3.org/2000/svg">
<path d="M22.2672 5.43293H2.73279C1.21457 5.43293 0 4.22561 0 2.71646C0 1.20732 1.21457 0 2.73279 0H22.2672C23.7854 0 25 1.20732 25 2.71646C25 4.22561 23.7854 5.43293 22.2672 5.43293ZM2.73279 1.40854C2.02429 1.40854 1.51822 2.0122 1.51822 2.71646C1.51822 3.42073 2.02429 4.02439 2.73279 4.02439H22.2672C22.9757 4.02439 23.583 3.42073 23.583 2.71646C23.583 2.0122 22.9757 1.40854 22.2672 1.40854H2.73279Z" fill="#0A9F30"/>
<path d="M12.5504 3.42074C12.1455 3.42074 11.8419 3.11891 11.8419 2.71648C11.7407 2.31404 12.1455 2.01221 12.5504 2.01221C12.9553 2.01221 13.2589 2.31404 13.2589 2.71648C13.2589 3.11891 12.9553 3.42074 12.5504 3.42074Z" fill="#0A9F30"/>
<path d="M6.57862 3.42074C6.17376 3.42074 5.87012 3.11891 5.87012 2.71648C5.87012 2.31404 6.17376 2.01221 6.57862 2.01221C6.98348 2.01221 7.28712 2.31404 7.28712 2.71648C7.28712 3.11891 6.98348 3.42074 6.57862 3.42074Z" fill="#0A9F30"/>
<path d="M18.4204 3.42074C18.0156 3.42074 17.7119 3.11891 17.7119 2.71648C17.7119 2.31404 18.0156 2.01221 18.4204 2.01221C18.8253 2.01221 19.1289 2.31404 19.1289 2.71648C19.1289 3.11891 18.8253 3.42074 18.4204 3.42074Z" fill="#0A9F30"/>
<path d="M21.053 9.15549H3.94776C3.5429 9.15549 3.23926 8.85366 3.23926 8.45122C3.23926 8.04878 3.5429 7.74695 3.94776 7.74695H21.053C21.4579 7.74695 21.7615 8.04878 21.7615 8.45122C21.7615 8.85366 21.4579 9.15549 21.053 9.15549Z" fill="#0A9F30"/>
<path d="M19.4333 12.6768H5.5669C5.16204 12.6768 4.8584 12.375 4.8584 11.9726C4.8584 11.5701 5.16204 11.2683 5.5669 11.2683H19.4333C19.8382 11.2683 20.1418 11.5701 20.1418 11.9726C20.1418 12.375 19.8382 12.6768 19.4333 12.6768Z" fill="#0A9F30"/>
<path d="M19.4333 16.0976H5.5669C5.16204 16.0976 4.8584 15.7958 4.8584 15.3934C4.8584 14.9909 5.16204 14.6891 5.5669 14.6891H19.4333C19.8382 14.6891 20.1418 14.9909 20.1418 15.3934C20.1418 15.7958 19.8382 16.0976 19.4333 16.0976Z" fill="#0A9F30"/>
<path d="M19.4333 19.6189H5.5669C5.16204 19.6189 4.8584 19.317 4.8584 18.9146C4.8584 18.5122 5.16204 18.2103 5.5669 18.2103H19.4333C19.8382 18.2103 20.1418 18.5122 20.1418 18.9146C20.1418 19.317 19.8382 19.6189 19.4333 19.6189Z" fill="#0A9F30"/>
<path d="M19.4333 23.1402H5.5669C5.16204 23.1402 4.8584 22.8384 4.8584 22.436C4.8584 22.0335 5.16204 21.7317 5.5669 21.7317H19.4333C19.8382 21.7317 20.1418 22.0335 20.1418 22.436C20.1418 22.8384 19.8382 23.1402 19.4333 23.1402Z" fill="#0A9F30"/>
<path d="M12.6519 26.561H5.5669C5.16204 26.561 4.8584 26.2592 4.8584 25.8567C4.8584 25.4543 5.16204 25.1525 5.5669 25.1525H12.6519C13.0568 25.1525 13.3604 25.4543 13.3604 25.8567C13.3604 26.2592 13.0568 26.561 12.6519 26.561Z" fill="#0A9F30"/>
<path d="M12.6519 30.0824H5.5669C5.16204 30.0824 4.8584 29.7805 4.8584 29.3781C4.8584 28.9757 5.16204 28.6738 5.5669 28.6738H12.6519C13.0568 28.6738 13.3604 28.9757 13.3604 29.3781C13.3604 29.7805 13.0568 30.0824 12.6519 30.0824Z" fill="#0A9F30"/>
<path d="M21.3563 33H3.64372C1.61943 33 0 31.3902 0 29.378V2.81706C0 2.41462 0.303644 2.11279 0.708502 2.11279C1.11336 2.11279 1.417 2.41462 1.417 2.81706V29.378C1.417 30.5854 2.42915 31.5914 3.64372 31.5914H21.4575C22.6721 31.5914 23.6842 30.5854 23.6842 29.378V6.94206C23.6842 6.53962 23.9879 6.23779 24.3927 6.23779C24.7976 6.23779 25.1012 6.53962 25.1012 6.94206V29.378C25 31.3902 23.3806 33 21.3563 33Z" fill="#0A9F30"/>
<path d="M15.7895 29.9817C15.6883 29.9817 15.5871 29.9817 15.4859 29.8811C15.1822 29.7805 14.9798 29.4787 15.081 29.0762L15.7895 25.1525C15.8907 24.75 16.1944 24.4482 16.5992 24.5488C17.0041 24.6494 17.3077 24.9512 17.2065 25.3537L17.0041 26.6616L17.915 25.6555C18.1175 25.4543 18.4211 25.3537 18.7247 25.4543C19.0284 25.5549 19.2308 25.8567 19.2308 26.1586V26.8628L21.2551 25.0518C21.5588 24.75 21.9636 24.75 22.2673 25.0518C22.5709 25.3537 22.5709 25.7561 22.2673 26.0579L19.0284 29.0762C18.826 29.2775 18.5223 29.2775 18.2187 29.1768C17.915 29.0762 17.8138 28.7744 17.8138 28.4726V28.0701L16.5992 29.4787C16.1944 29.8811 15.9919 29.9817 15.7895 29.9817Z" fill="#0A9F30"/>
</svg>
