<svg width="39" height="35" viewBox="0 0 39 35" fill="none" xmlns="http://www.w3.org/2000/svg">
<path d="M35.314 34.9999H3.68598C1.66463 34.9999 0 33.3774 0 31.4072V10.0827C0 8.11251 1.66463 6.48999 3.68598 6.48999H35.1951C37.2165 6.48999 38.8811 8.11251 38.8811 10.0827V31.4072C39 33.3774 37.3354 34.9999 35.314 34.9999ZM3.68598 8.11251C2.61585 8.11251 1.66463 9.03966 1.66463 10.0827V31.4072C1.66463 32.4502 2.61585 33.3774 3.68598 33.3774H35.1951C36.2652 33.3774 37.2165 32.4502 37.2165 31.4072V10.0827C37.2165 9.03966 36.2652 8.11251 35.1951 8.11251H3.68598Z" fill="#0A9F30"/>
<path d="M27.8234 4.05629H11.177C10.7014 4.05629 10.3447 3.70861 10.3447 3.24503V2.08609C10.3447 0.927152 11.2959 0 12.485 0H26.5155C27.7045 0 28.6557 0.927152 28.6557 2.08609V3.24503C28.6557 3.59272 28.299 4.05629 27.8234 4.05629ZM12.1283 2.31788H26.9911V2.08609C26.9911 1.8543 26.7533 1.62252 26.5155 1.62252H12.485C12.2472 1.62252 12.0094 1.8543 12.0094 2.08609V2.31788H12.1283Z" fill="#0A9F30"/>
<path d="M27.8235 8.11255C27.3479 8.11255 26.9912 7.76487 26.9912 7.30129V2.89732C26.9912 2.43374 27.3479 2.08606 27.8235 2.08606C28.2991 2.08606 28.6558 2.43374 28.6558 2.89732V7.30129C28.6558 7.76487 28.2991 8.11255 27.8235 8.11255Z" fill="#0A9F30"/>
<path d="M11.177 8.11255C10.8203 8.11255 10.3447 7.76487 10.3447 7.30129V2.89732C10.3447 2.43374 10.7014 2.08606 11.177 2.08606C11.6527 2.08606 12.0094 2.43374 12.0094 2.89732V7.30129C12.1283 7.76487 11.6527 8.11255 11.177 8.11255Z" fill="#0A9F30"/>
<path d="M33.6497 12.6325H5.35087C4.87526 12.6325 4.51855 12.2848 4.51855 11.8213C4.51855 11.3577 4.87526 11.01 5.35087 11.01H33.6497C34.1253 11.01 34.482 11.3577 34.482 11.8213C34.482 12.2848 34.1253 12.6325 33.6497 12.6325Z" fill="#0A9F30"/>
<path d="M33.6497 30.4802H5.35087C4.87526 30.4802 4.51855 30.1325 4.51855 29.6689C4.51855 29.2053 4.87526 28.8577 5.35087 28.8577H33.6497C34.1253 28.8577 34.482 29.2053 34.482 29.6689C34.482 30.1325 34.1253 30.4802 33.6497 30.4802Z" fill="#0A9F30"/>
<path d="M19.4997 26.4238C17.2406 26.4238 15.457 24.9172 15.457 23.1787C15.457 22.7152 15.8137 22.3675 16.2893 22.3675C16.765 22.3675 17.1217 22.7152 17.1217 23.1787C17.1217 24.1059 18.1918 24.8013 19.4997 24.8013C20.8076 24.8013 21.8778 24.1059 21.8778 23.1787C21.8778 22.7152 21.4022 21.5562 19.4997 21.5562C16.765 21.5562 15.457 19.586 15.457 18.3112C15.457 16.4569 17.2406 15.0662 19.4997 15.0662C21.7589 15.0662 23.5424 16.5728 23.5424 18.3112C23.5424 18.7748 23.1857 19.1225 22.7101 19.1225C22.2345 19.1225 21.8778 18.7748 21.8778 18.3112C21.8778 17.384 20.8076 16.6887 19.4997 16.6887C18.1918 16.6887 17.1217 17.384 17.1217 18.3112C17.1217 18.8907 17.7162 19.9337 19.4997 19.9337C22.4723 19.9337 23.5424 21.9039 23.5424 23.1787C23.5424 25.0331 21.7589 26.4238 19.4997 26.4238Z" fill="#0A9F30"/>
<path d="M19.4993 16.2251C19.0237 16.2251 18.667 15.8774 18.667 15.4138V14.7185C18.667 14.2549 19.0237 13.9072 19.4993 13.9072C19.9749 13.9072 20.3316 14.2549 20.3316 14.7185V15.4138C20.3316 15.8774 19.9749 16.2251 19.4993 16.2251Z" fill="#0A9F30"/>
<path d="M19.4993 27.6986C19.0237 27.6986 18.667 27.3509 18.667 26.8874V26.192C18.667 25.7284 19.0237 25.3807 19.4993 25.3807C19.9749 25.3807 20.3316 25.7284 20.3316 26.192V26.8874C20.3316 27.235 19.9749 27.6986 19.4993 27.6986Z" fill="#0A9F30"/>
<path d="M19.4993 19.0065C19.0237 19.0065 18.667 18.6588 18.667 18.1953V16.8045C18.667 16.341 19.0237 15.9933 19.4993 15.9933C19.9749 15.9933 20.3316 16.341 20.3316 16.8045V18.1953C20.3316 18.6588 19.9749 19.0065 19.4993 19.0065Z" fill="#0A9F30"/>
<path d="M19.4993 25.4965C19.0237 25.4965 18.667 25.1488 18.667 24.6853V23.2945C18.667 22.831 19.0237 22.4833 19.4993 22.4833C19.9749 22.4833 20.3316 22.831 20.3316 23.2945V24.6853C20.3316 25.1488 19.9749 25.4965 19.4993 25.4965Z" fill="#0A9F30"/>
<path d="M11.7715 21.5564H7.7288C7.25319 21.5564 6.89648 21.2087 6.89648 20.7451C6.89648 20.2815 7.25319 19.9338 7.7288 19.9338H11.7715C12.2471 19.9338 12.6038 20.2815 12.6038 20.7451C12.6038 21.2087 12.2471 21.5564 11.7715 21.5564Z" fill="#0A9F30"/>
<path d="M31.2715 21.5564H27.2288C26.7532 21.5564 26.3965 21.2087 26.3965 20.7451C26.3965 20.2815 26.7532 19.9338 27.2288 19.9338H31.2715C31.7471 19.9338 32.1038 20.2815 32.1038 20.7451C32.1038 21.2087 31.7471 21.5564 31.2715 21.5564Z" fill="#0A9F30"/>
</svg>
