<svg width="35" height="34" viewBox="0 0 35 34" fill="none" xmlns="http://www.w3.org/2000/svg">
<path d="M17.1414 34C7.69087 34 0 26.3726 0 17C0 7.62742 7.69087 0 17.1414 0C26.592 0 34.2828 7.62742 34.2828 17C34.2828 26.3726 26.592 34 17.1414 34ZM17.1414 1.83058C8.69991 1.83058 1.84581 8.64034 1.84581 17C1.84581 25.3719 8.71222 32.1694 17.1414 32.1694C25.5706 32.1694 32.437 25.3597 32.437 17C32.437 8.62814 25.5706 1.83058 17.1414 1.83058Z" fill="#0A9F30"/>
<path d="M17.1417 5.7235C16.6371 5.7235 16.2188 5.30857 16.2188 4.80821V4.25904C16.2188 3.75868 16.6371 3.34375 17.1417 3.34375C17.6462 3.34375 18.0646 3.75868 18.0646 4.25904V4.80821C18.0646 5.32077 17.6462 5.7235 17.1417 5.7235Z" fill="#0A9F30"/>
<path d="M17.1417 30.7048C16.6371 30.7048 16.2188 30.2899 16.2188 29.7895V29.2404C16.2188 28.74 16.6371 28.3251 17.1417 28.3251C17.6462 28.3251 18.0646 28.74 18.0646 29.2404V29.7895C18.0646 30.2899 17.6462 30.7048 17.1417 30.7048Z" fill="#0A9F30"/>
<path d="M4.82334 17.9398H4.26959C3.76507 17.9398 3.34668 17.5249 3.34668 17.0245C3.34668 16.5242 3.76507 16.1093 4.26959 16.1093H4.82334C5.32786 16.1093 5.74625 16.5242 5.74625 17.0245C5.74625 17.5371 5.32786 17.9398 4.82334 17.9398Z" fill="#0A9F30"/>
<path d="M30.0001 17.9398H29.4463C28.9418 17.9398 28.5234 17.5249 28.5234 17.0245C28.5234 16.5242 28.9418 16.1093 29.4463 16.1093H30.0001C30.5046 16.1093 30.923 16.5242 30.923 17.0245C30.923 17.5371 30.5169 17.9398 30.0001 17.9398Z" fill="#0A9F30"/>
<path d="M25.8417 9.29935C25.6079 9.29935 25.3741 9.21392 25.1895 9.03087C24.8327 8.67695 24.8327 8.09117 25.1895 7.73726L25.5833 7.34673C25.9401 6.99282 26.5308 6.99282 26.8877 7.34673C27.2445 7.70064 27.2445 8.28643 26.8877 8.64034L26.4939 9.03087C26.3216 9.21392 26.0878 9.29935 25.8417 9.29935Z" fill="#0A9F30"/>
<path d="M8.03506 26.9706C7.80126 26.9706 7.56746 26.8852 7.38288 26.7021C7.02602 26.3482 7.02602 25.7624 7.38288 25.4085L7.77665 25.018C8.1335 24.6641 8.72416 24.6641 9.08102 25.018C9.43787 25.3719 9.43787 25.9577 9.08102 26.3116L8.68724 26.7021C8.51497 26.873 8.26886 26.9706 8.03506 26.9706Z" fill="#0A9F30"/>
<path d="M8.42883 9.29935C8.19503 9.29935 7.96123 9.21392 7.77665 9.03087L7.38288 8.64034C7.02602 8.28643 7.02602 7.70064 7.38288 7.34673C7.73973 6.99282 8.33039 6.99282 8.68724 7.34673L9.08102 7.73726C9.43787 8.09117 9.43787 8.67695 9.08102 9.03087C8.89644 9.21392 8.66263 9.29935 8.42883 9.29935Z" fill="#0A9F30"/>
<path d="M26.2355 26.9706C26.0017 26.9706 25.7679 26.8852 25.5833 26.7021L25.1895 26.3116C24.8327 25.9577 24.8327 25.3719 25.1895 25.018C25.5464 24.6641 26.137 24.6641 26.4939 25.018L26.8877 25.4085C27.2445 25.7624 27.2445 26.3482 26.8877 26.7021C26.7031 26.873 26.4693 26.9706 26.2355 26.9706Z" fill="#0A9F30"/>
<path d="M17.1417 17.9396C17.0186 17.9396 16.9078 17.9152 16.7848 17.8663C16.4402 17.7199 16.2188 17.3904 16.2188 17.0243V7.969C16.2188 7.46864 16.6371 7.05371 17.1417 7.05371C17.6462 7.05371 18.0646 7.46864 18.0646 7.969V14.8154L20.378 12.521C20.7348 12.1671 21.3255 12.1671 21.6824 12.521C22.0392 12.875 22.0392 13.4607 21.6824 13.8147L17.7938 17.6711C17.6093 17.8541 17.3755 17.9396 17.1417 17.9396Z" fill="#0A9F30"/>
</svg>
