<svg width="449" height="168" fill="none" xmlns="http://www.w3.org/2000/svg"><g filter="url(#filter0_d)" fill="#fff"><path d="M80.767 123.434V65.113l-41.559 58.321h-18.47V16h24.627v58.321L86.925 16h18.47v107.434H80.768zm169.305-23.635h11.544V144h-24.628v-20.566H123.854V16h24.628v83.799h26.167V16h24.628v83.799h26.167V16h24.628v83.799zm49.327 0h43.099v23.635h-67.726V16h66.956v23.636h-42.329v17.803h38.481v23.328h-38.481V99.8zM428.737 16v23.636h-27.706v83.798h-24.628V39.636h-27.706V16h80.04z"/></g><defs><filter id="filter0_d" x=".737" y="0" width="448" height="168" filterUnits="userSpaceOnUse" color-interpolation-filters="sRGB"><feFlood flood-opacity="0" result="BackgroundImageFix"/><feColorMatrix in="SourceAlpha" values="0 0 0 0 0 0 0 0 0 0 0 0 0 0 0 0 0 0 127 0"/><feOffset dy="4"/><feGaussianBlur stdDeviation="10"/><feColorMatrix values="0 0 0 0 0.306548 0 0 0 0 0.929167 0 0 0 0 0.205191 0 0 0 0.7 0"/><feBlend in2="BackgroundImageFix" result="effect1_dropShadow"/><feBlend in="SourceGraphic" in2="effect1_dropShadow" result="shape"/></filter></defs></svg>