<svg width="726" height="100" fill="none" xmlns="http://www.w3.org/2000/svg"><g filter="url(#filter0_d)" fill="#fff"><path d="M63.338 18v56h-14.32V31.84h-14.56V74h-14.32V18h43.2zm30.591 0c5.653 0 10.4 1.84 14.24 5.52 3.84 3.68 5.76 8.373 5.76 14.08 0 5.707-1.92 10.4-5.76 14.08-3.84 3.68-8.587 5.52-14.24 5.52h-7.44V74h-14.32V18h21.76zm0 25.6c1.6 0 2.933-.56 4-1.68 1.12-1.12 1.68-2.56 1.68-4.32 0-1.76-.56-3.173-1.68-4.24-1.067-1.12-2.4-1.68-4-1.68h-7.44V43.6h7.44zm73.506 23.2c-5.654 5.6-12.587 8.4-20.8 8.4-8.214 0-15.174-2.8-20.88-8.4-5.654-5.653-8.48-12.587-8.48-20.8 0-8.213 2.826-15.12 8.48-20.72 5.706-5.653 12.666-8.48 20.88-8.48 8.213 0 15.146 2.827 20.8 8.48 5.706 5.6 8.56 12.507 8.56 20.72s-2.854 15.147-8.56 20.8zm-31.6-9.84c2.88 2.827 6.48 4.24 10.8 4.24s7.92-1.413 10.8-4.24c2.88-2.88 4.32-6.533 4.32-10.96 0-4.427-1.44-8.053-4.32-10.88-2.88-2.88-6.48-4.32-10.8-4.32s-7.92 1.44-10.8 4.32c-2.88 2.827-4.32 6.453-4.32 10.88 0 4.427 1.44 8.08 4.32 10.96zM215.758 18v13.84h-18.8V74h-14.32V18h33.12zm26.608 0c5.654 0 10.4 1.84 14.24 5.52 3.84 3.68 5.76 8.373 5.76 14.08 0 5.707-1.92 10.4-5.76 14.08-3.84 3.68-8.586 5.52-14.24 5.52h-7.44V74h-14.32V18h21.76zm0 25.6c1.6 0 2.934-.56 4-1.68 1.12-1.12 1.68-2.56 1.68-4.32 0-1.76-.56-3.173-1.68-4.24-1.066-1.12-2.4-1.68-4-1.68h-7.44V43.6h7.44zm54.51 30.4l-2.4-8.08h-18.64l-2.4 8.08h-15.52l18.48-56h17.44l18.48 56h-15.44zm-17.36-20.4h11.28l-5.68-19.04-5.6 19.04zM373.508 18v56h-14.24V43.84l-13.6 22.48h-1.44l-13.52-22.4V74h-14.32V18h14.32l14.24 23.92L359.268 18h14.24zm66.015 0v56h-14.24V43.84l-13.6 22.48h-1.44l-13.52-22.4V74h-14.32V18h14.32l14.24 23.92L425.283 18h14.24zm39.776 56V45.84L459.539 74h-11.12V18h14.32v28.16L482.499 18h11.04v56h-14.24zm50.144 1.2c-8.426 0-15.413-2.773-20.96-8.32-5.493-5.6-8.24-12.56-8.24-20.88 0-8.32 2.747-15.253 8.24-20.8 5.547-5.6 12.534-8.4 20.96-8.4 5.067 0 9.76 1.2 14.08 3.6 4.32 2.4 7.707 5.627 10.16 9.68l-12.4 7.12c-1.066-1.973-2.666-3.52-4.8-4.64-2.08-1.173-4.426-1.76-7.04-1.76-4.48 0-8.106 1.413-10.88 4.24-2.72 2.773-4.08 6.427-4.08 10.96 0 4.533 1.36 8.213 4.08 11.04 2.774 2.773 6.4 4.16 10.88 4.16 2.614 0 4.96-.56 7.04-1.68 2.134-1.173 3.734-2.773 4.8-4.8l12.4 7.2c-2.453 4.107-5.84 7.36-10.16 9.76-4.266 2.347-8.96 3.52-14.08 3.52zM597.522 18v13.84h-13.84V74h-14.32V31.84h-13.84V18h42zm50.381 48.8c-5.653 5.6-12.586 8.4-20.8 8.4-8.213 0-15.173-2.8-20.88-8.4-5.653-5.653-8.48-12.587-8.48-20.8 0-8.213 2.827-15.12 8.48-20.72 5.707-5.653 12.667-8.48 20.88-8.48 8.214 0 15.147 2.827 20.8 8.48 5.707 5.6 8.56 12.507 8.56 20.72s-2.853 15.147-8.56 20.8zm-31.6-9.84c2.88 2.827 6.48 4.24 10.8 4.24s7.92-1.413 10.8-4.24c2.88-2.88 4.32-6.533 4.32-10.96 0-4.427-1.44-8.053-4.32-10.88-2.88-2.88-6.48-4.32-10.8-4.32s-7.92 1.44-10.8 4.32c-2.88 2.827-4.32 6.453-4.32 10.88 0 4.427 1.44 8.08 4.32 10.96zm82.163-11.92c4.694 2.773 7.04 6.96 7.04 12.56 0 4.96-1.706 8.933-5.12 11.92-3.413 2.987-7.973 4.48-13.68 4.48h-23.6V18h22.08c5.6 0 10.08 1.44 13.44 4.32 3.36 2.827 5.04 6.693 5.04 11.6 0 4.693-1.733 8.4-5.2 11.12zm-13.68-14.24h-7.36v8.8h7.36c1.28 0 2.347-.373 3.2-1.12.907-.8 1.36-1.893 1.36-3.28 0-1.333-.426-2.4-1.28-3.2-.853-.8-1.946-1.2-3.28-1.2zm1.52 30.4c1.44 0 2.614-.427 3.52-1.28.907-.907 1.36-2.053 1.36-3.44 0-1.44-.453-2.587-1.36-3.44-.906-.853-2.08-1.28-3.52-1.28h-8.88v9.44h8.88z"/></g><defs><filter id="filter0_d" x=".138" y=".8" width="725.369" height="98.4" filterUnits="userSpaceOnUse" color-interpolation-filters="sRGB"><feFlood flood-opacity="0" result="BackgroundImageFix"/><feColorMatrix in="SourceAlpha" values="0 0 0 0 0 0 0 0 0 0 0 0 0 0 0 0 0 0 127 0"/><feOffset dy="4"/><feGaussianBlur stdDeviation="10"/><feColorMatrix values="0 0 0 0 0.306548 0 0 0 0 0.929167 0 0 0 0 0.205191 0 0 0 0.7 0"/><feBlend in2="BackgroundImageFix" result="effect1_dropShadow"/><feBlend in="SourceGraphic" in2="effect1_dropShadow" result="shape"/></filter></defs></svg>