<svg width="265" height="132" fill="none" xmlns="http://www.w3.org/2000/svg"><g filter="url(#filter0_d)" fill="#04BA16"><path d="M29.084 24.8c2.16 0 3.9.61 5.22 1.83 1.32 1.2 1.98 2.79 1.98 4.77 0 1.98-.66 3.58-1.98 4.8-1.32 1.2-3.06 1.8-5.22 1.8h-8.1V17h13.5v4.62h-8.7v3.18h3.3zm0 8.7c1.6 0 2.4-.7 2.4-2.1 0-1.4-.8-2.1-2.4-2.1h-3.3v4.2h3.3zM49.025 17h4.8l-6.06 14.82c-1.78 4.34-4.72 6.4-8.82 6.18v-4.5c1.94.18 3.34-.51 4.2-2.07L36.425 17h4.8l4.11 9.18 3.69-9.18zm23.89 21h-5.46l-6.72-9.72V38h-4.8V17h4.8v9.12l6.42-9.12h5.46l-7.08 10.23L72.915 38zm22.8-21v21h-4.8V25.79l-5.43 8.91h-.54l-5.43-8.91V38h-4.8V17h4.8l5.7 9.33 5.7-9.33h4.8zm8.409 16.38h8.4V38h-13.2V17h13.05v4.62h-8.25v3.48h7.5v4.56h-7.5v3.72zM132.212 38h-5.46l-6.72-9.72V38h-4.8V17h4.8v9.12l6.42-9.12h5.46l-7.08 10.23 7.38 10.77zm6.6-4.62h8.4V38h-13.2V17h13.05v4.62h-8.25v3.48h7.5v4.56h-7.5v3.72zM157.87 17c2.06 0 3.8.7 5.22 2.1 1.42 1.4 2.13 3.1 2.13 5.1 0 2-.71 3.7-2.13 5.1-1.42 1.4-3.16 2.1-5.22 2.1h-3.15V38h-4.8V17h7.95zm0 9.9c.74 0 1.35-.26 1.83-.78s.72-1.16.72-1.92-.24-1.4-.72-1.92-1.09-.78-1.83-.78h-3.15v5.4h3.15zm19.619 11.52c-3.14 0-5.75-1.04-7.83-3.12-2.06-2.1-3.09-4.7-3.09-7.8 0-3.1 1.03-5.69 3.09-7.77 2.08-2.1 4.69-3.15 7.83-3.15 1.88 0 3.62.44 5.22 1.32 1.6.86 2.86 2.04 3.78 3.54l-4.14 2.4a4.635 4.635 0 00-1.98-1.89c-.86-.46-1.82-.69-2.88-.69-1.86 0-3.35.57-4.47 1.71-1.1 1.14-1.65 2.65-1.65 4.53 0 1.88.55 3.39 1.65 4.53 1.12 1.14 2.61 1.71 4.47 1.71 1.06 0 2.02-.23 2.88-.69.88-.46 1.54-1.09 1.98-1.89l4.14 2.4c-.9 1.5-2.15 2.69-3.75 3.57-1.6.86-3.35 1.29-5.25 1.29zm28.229-.42h-5.46l-6.72-9.72V38h-4.8V17h4.8v9.12l6.42-9.12h5.46l-7.08 10.23 7.38 10.77zm15.736 0l-1.05-3.3h-7.8l-1.05 3.3h-5.25l7.14-21h6.12l7.14 21h-5.25zm-7.41-7.8h4.92l-2.46-7.71-2.46 7.71zM243.937 17v21h-4.8v-6.9h-1.53l-4.47 6.9h-5.4l4.92-7.5a7.122 7.122 0 01-3.12-2.52c-.8-1.16-1.2-2.42-1.2-3.78 0-2 .7-3.7 2.1-5.1 1.4-1.4 3.1-2.1 5.1-2.1h8.4zm-8.4 9.9h3.6v-5.4h-3.6c-.66 0-1.23.26-1.71.78-.46.52-.69 1.16-.69 1.92s.23 1.4.69 1.92c.48.52 1.05.78 1.71.78zM100.718 73h-5.46l-6.72-9.72V73h-4.8V52h4.8v9.12l6.42-9.12h5.46l-7.08 10.23 7.38 10.77z"/><path d="M118.49 70.27c-2.12 2.1-4.7 3.15-7.74 3.15s-5.62-1.05-7.74-3.15c-2.12-2.1-3.18-4.69-3.18-7.77 0-3.08 1.06-5.67 3.18-7.77 2.12-2.1 4.7-3.15 7.74-3.15s5.62 1.05 7.74 3.15c2.12 2.1 3.18 4.69 3.18 7.77 0 3.08-1.06 5.67-3.18 7.77zM106.37 67c1.18 1.16 2.64 1.74 4.38 1.74 1.74 0 3.19-.58 4.35-1.74 1.18-1.16 1.77-2.66 1.77-4.5 0-1.84-.59-3.34-1.77-4.5-1.16-1.16-2.61-1.74-4.35-1.74-1.74 0-3.2.58-4.38 1.74-1.16 1.16-1.74 2.66-1.74 4.5 0 1.84.58 3.34 1.74 4.5zm39.003-15v21h-4.8V60.79l-5.43 8.91h-.54l-5.43-8.91V73h-4.8V52h4.8l5.7 9.33 5.7-9.33h4.8zm19.509 0v21h-4.8V56.62h-6.3V73h-4.8V52h15.9zm16.962 21l-1.05-3.3h-7.8l-1.05 3.3h-5.25l7.14-21h6.12l7.14 21h-5.25zm-7.41-7.8h4.92l-2.46-7.71-2.46 7.71zM200.285 52h4.8v21h-4.8v-8.34h-6.6V73h-4.8V52h4.8v8.04h6.6V52zm20.104 21V61.6l-8.1 11.4h-3.6V52h4.8v11.4l8.1-11.4h3.6v21h-4.8zm23.548-21v21h-4.8v-6.9h-1.53l-4.47 6.9h-5.4l4.92-7.5a7.122 7.122 0 01-3.12-2.52c-.8-1.16-1.2-2.42-1.2-3.78 0-2 .7-3.7 2.1-5.1 1.4-1.4 3.1-2.1 5.1-2.1h8.4zm-8.4 9.9h3.6v-5.4h-3.6c-.66 0-1.23.26-1.71.78-.46.52-.69 1.16-.69 1.92s.23 1.4.69 1.92c.48.52 1.05.78 1.71.78zM95.241 95.85l2.4-8.85h3.6l-1.2 8.85h-4.8zm6 0l2.4-8.85h3.6l-1.2 8.85h-4.8zM131.398 87v21h-4.8V95.79l-5.43 8.91h-.54l-5.43-8.91V108h-4.8V87h4.8l5.7 9.33 5.7-9.33h4.8zm16.96 21l-1.05-3.3h-7.8l-1.05 3.3h-5.25l7.14-21h6.12l7.14 21h-5.25zm-7.41-7.8h4.92l-2.46-7.71-2.46 7.71zm30.95 7.8h-5.46l-3.54-6.06-3.54 6.06h-5.46l6.27-10.77-5.97-10.23h5.46l3.24 5.55 3.24-5.55h5.46l-5.97 10.23 6.27 10.77zm6.904-4.62h7.5V108h-12.3V87h4.8v16.38zM188.416 87h4.8v21h-4.8V87zm20.108 0h4.8v21h-3.6l-8.1-11.4V108h-4.8V87h3.6l8.1 11.4V87zm13.198 16.38h8.4V108h-13.2V87h13.05v4.62h-8.25v3.48h7.5v4.56h-7.5v3.72zM238.38 87l-2.4 8.85h-3.6l1.2-8.85h4.8zm6 0l-2.4 8.85h-3.6l1.2-8.85h4.8z"/></g><defs><filter id="filter0_d" x=".984" y=".58" width="263.396" height="131.42" filterUnits="userSpaceOnUse" color-interpolation-filters="sRGB"><feFlood flood-opacity="0" result="BackgroundImageFix"/><feColorMatrix in="SourceAlpha" values="0 0 0 0 0 0 0 0 0 0 0 0 0 0 0 0 0 0 127 0"/><feOffset dy="4"/><feGaussianBlur stdDeviation="10"/><feColorMatrix values="0 0 0 0 0 0 0 0 0 0 0 0 0 0 0 0 0 0 0.7 0"/><feBlend in2="BackgroundImageFix" result="effect1_dropShadow"/><feBlend in="SourceGraphic" in2="effect1_dropShadow" result="shape"/></filter></defs></svg>