<svg width="231" height="57" fill="none" xmlns="http://www.w3.org/2000/svg"><path d="M16.86 24.884l1.082 5.023h7.917l2.665-4.675-2.163 12.286h10.505l5.87-33.303H31.691l-7.724 13.252-3.051-13.252H9.986l-5.87 33.303h10.505l2.24-12.634zm53.873 12.634h13.054l5.986-7.611 4.055 7.61h11.238L96.377 21.37 110.01 4.215H96.956l-5.754 7.302-3.862-7.302H76.102l8.419 15.801-9.81 12.44-3.978 5.062zm-20.314 0l3.282-7.611h5.253l.656 7.61h10.66l-.734-5.06-4.21-28.242h-9.192L39.49 37.518h10.93zm5.638-13.638l2.163-4.984.348 4.984h-2.51z" fill="#fff"/><path d="M118.582 41.15l4.248-23.875h-10.505l-5.87 33.225h23.713l1.66-9.35h-13.246zm21.05-23.876l-5.87 33.226h10.504l5.871-33.225h-10.505zm32.131 0l-2.472 14.102-7.53-14.102h-8.033L147.857 50.5h10.505l2.472-13.947 7.453 13.947h8.111l5.87-33.225h-10.505zm35.298 9.35l1.622-9.35h-22.825l-5.87 33.226h22.902l1.622-9.35h-12.358l.54-3.129h8.806l1.583-8.809h-8.805l.424-2.588h12.359zM3.42 41.15L.138 50.5h102.651l1.661-9.35H3.42z" fill="#0A9F30"/><path d="M112.944 13.642l1.661-9.35h98.365l-3.63 9.35h-96.396zm106.933-8.129c.454 0 .907.09 1.361.271a4.37 4.37 0 011.134.724c.317.317.59.679.726 1.13.181.408.272.86.272 1.358 0 .633-.136 1.221-.454 1.719-.317.543-.726.95-1.27 1.267a3.39 3.39 0 01-1.724.452c-.635 0-1.225-.136-1.724-.452a3.414 3.414 0 01-1.723-2.986c0-.588.136-1.221.453-1.719.318-.543.726-.95 1.27-1.267.454-.361 1.044-.497 1.679-.497zm0 .678c-.499 0-.953.136-1.406.362a2.621 2.621 0 00-.998.995c-.273.408-.363.905-.363 1.403 0 .497.136.95.363 1.402.272.407.589.769 1.043.995.408.226.907.362 1.406.362a2.96 2.96 0 001.407-.362c.408-.226.771-.588.998-.995a2.94 2.94 0 00.362-1.402 2.94 2.94 0 00-.362-1.403 2.635 2.635 0 00-.998-.995c-.499-.226-.953-.362-1.452-.362zm-.817 4.614h-.771V7.141h1.724c.272 0 .499.046.68.136.182.09.318.226.409.362.09.136.136.362.136.543a.92.92 0 01-.272.678 1.236 1.236 0 01-.726.362c.181.045.272.136.408.272.091.135.227.316.408.588l.454.723h-.907l-.318-.588c-.136-.271-.272-.452-.363-.588-.09-.135-.181-.226-.317-.271a.858.858 0 00-.363-.09h-.182v1.537zm0-3.076v.996h.59c.272 0 .499-.046.635-.09a.475.475 0 00.227-.408.41.41 0 00-.181-.362c-.137-.09-.318-.136-.59-.136h-.681z" fill="#fff"/></svg>