<svg width="25" height="25" fill="none" xmlns="http://www.w3.org/2000/svg"><g clip-path="url(#clip0)" fill="#fff"><path d="M23.185 17.201l-3.117-1.63c-.779-.389-1.325-.078-1.948.776-1.402 1.942-2.104 2.33-3.818 1.32-1.636-.932-2.805-1.941-4.208-3.417-1.48-1.476-2.493-2.563-3.428-4.194C5.73 8.347 6.12 7.648 7.99 6.25c.857-.621 1.17-1.243.78-1.942L7.133 1.28C6.51-.041 5.497-.197 4.094.269 2.146.97.276 3.764.354 5.085c.312 3.883 2.26 8.544 6.312 12.66 4.052 4.039 8.805 5.98 12.7 6.291 1.326.078 4.13-1.786 4.832-3.728.39-1.476.234-2.408-1.013-3.107z"/><path d="M13.99 5.474c-.623 0-1.169.543-1.169 1.165 0 .621.546 1.165 1.17 1.165.7 0 1.324.233 1.87.777a2.71 2.71 0 01.779 1.864c0 .62.545 1.165 1.168 1.165.624 0 1.17-.544 1.17-1.165 0-1.32-.468-2.564-1.481-3.496-.936-1.01-2.182-1.475-3.507-1.475zm7.013-2.02A9.81 9.81 0 0014.068.581c-.623 0-1.169.543-1.169 1.165 0 .62.546 1.165 1.169 1.165 2.026 0 3.896.776 5.299 2.174a7.385 7.385 0 012.182 5.282c0 .621.545 1.165 1.168 1.165.624 0 1.17-.544 1.17-1.165a9.746 9.746 0 00-2.884-6.913z"/></g><defs><clipPath id="clip0"><path fill="#fff" transform="translate(.354 .037)" d="M0 0h24v24H0z"/></clipPath></defs></svg>