<svg width="27" height="24" fill="none" xmlns="http://www.w3.org/2000/svg"><path d="M.505 11.249c2.722-1.5 5.762-2.752 8.602-4.01 4.886-2.06 9.791-4.086 14.746-5.971.964-.322 2.696-.636 2.866.793-.093 2.022-.475 4.032-.738 6.043-.666 4.42-1.436 8.827-2.186 13.233-.26 1.468-2.098 2.228-3.274 1.288-2.828-1.91-5.677-3.8-8.468-5.755-.915-.929-.067-2.263.75-2.926 2.329-2.295 4.798-4.245 7.005-6.659.596-1.437-1.163-.226-1.744.145-3.188 2.197-6.297 4.528-9.659 6.46-1.717.944-3.718.137-5.434-.39-1.539-.638-3.793-1.28-2.467-2.251z" fill="#fff"/></svg>