<svg width="408" height="113" fill="none" xmlns="http://www.w3.org/2000/svg"><g filter="url(#filter0_d)"><path d="M30.5 20h357.395L377.5 92.545H20.515L30.5 20z" fill="red"/><path d="M30.5 20h357.395L377.5 92.545H20.515L30.5 20z" fill="url(#paint0_linear)" fill-opacity=".8"/><path d="M21.088 92.045L30.936 20.5h356.382l-10.251 71.545H21.088z" stroke="url(#paint1_linear)"/></g><g filter="url(#filter1_d)" fill="#fff"><path d="M92.466 53.56c1.75 0 3.12.572 4.108 1.716 1.005 1.127 1.36 2.548 1.066 4.264-.312 1.733-1.1 3.077-2.366 4.03-1.248.953-2.86 1.43-4.836 1.43h-7.02l3.198-18.2h11.7l-.702 4.004h-7.54l-.494 2.756h2.886zm1.066 5.72c.104-.624-.009-1.083-.338-1.378-.33-.295-.806-.442-1.43-.442h-2.86l-.65 3.64h2.86c1.404 0 2.21-.607 2.418-1.82zm13.184 6.084c-2.635 0-4.732-.953-6.292-2.86-1.543-1.907-2.071-4.195-1.586-6.864.468-2.704 1.707-4.914 3.718-6.63 2.028-1.716 4.455-2.574 7.28-2.574 2.6 0 4.671.953 6.214 2.86 1.56 1.907 2.106 4.195 1.638 6.864-.485 2.704-1.733 4.914-3.744 6.63-2.011 1.716-4.42 2.574-7.228 2.574zm.442-4.056c1.525 0 2.895-.503 4.108-1.508 1.231-1.005 1.985-2.305 2.262-3.9.277-1.595 0-2.895-.832-3.9-.815-1.005-1.976-1.508-3.484-1.508s-2.851.503-4.03 1.508c-1.179 1.005-1.907 2.305-2.184 3.9-.277 1.612-.026 2.92.754 3.926.78.988 1.915 1.482 3.406 1.482zm8.451 3.744l.676-3.9c1.006.121 1.794-.052 2.366-.52.572-.468.988-1.421 1.248-2.86l1.924-10.972h12.584L131.209 65h-4.16l2.496-14.196h-4.264l-1.196 6.812c-.19 1.127-.468 2.132-.832 3.016-.346.867-.736 1.569-1.17 2.106-.433.52-.918.97-1.456 1.352a4.713 4.713 0 01-1.638.728c-.537.121-1.1.208-1.69.26-.589.07-1.152.06-1.69-.026zm27.22-12.532c1.682 0 3.051.659 4.108 1.976 1.075 1.3 1.465 2.808 1.17 4.524-.329 1.855-1.161 3.32-2.496 4.394-1.317 1.057-2.972 1.586-4.966 1.586h-6.838l3.198-18.2h4.16l-1.014 5.72h2.678zm1.118 6.24c.122-.659.009-1.213-.338-1.664-.329-.45-.814-.676-1.456-.676h-2.678l-.832 4.68h2.678c.676 0 1.248-.217 1.716-.65.486-.45.789-1.014.91-1.69zm25.034-11.96h4.16L169.943 65h-21.32l3.198-18.2h4.16l-2.496 14.196h4.42l2.496-14.196h4.16l-2.496 14.196h4.42l2.496-14.196zm17.379 4.004h-7.15l-.546 3.042h6.526l-.702 3.9h-6.5l-.572 3.25h7.28L183.994 65h-11.44l3.198-18.2h11.31l-.702 4.004zm20.573 1.326c-.242 1.508-.97 2.687-2.184 3.536 1.231.97 1.725 2.349 1.482 4.134-.208 1.56-.91 2.817-2.106 3.77-1.196.953-2.842 1.43-4.94 1.43h-7.384l3.198-18.2h6.864c1.647 0 2.964.503 3.952 1.508.988.988 1.361 2.262 1.118 3.822zm-5.616-1.43h-2.834l-.572 3.224h2.834c.52 0 .962-.147 1.326-.442.364-.295.59-.685.676-1.17.087-.45.009-.832-.234-1.144-.242-.312-.641-.468-1.196-.468zm.104 9.932a2.03 2.03 0 00.728-1.274c.087-.52-.008-.936-.286-1.248-.26-.33-.676-.494-1.248-.494h-3.354l-.624 3.484h3.354c.572 0 1.049-.156 1.43-.468zM218.441 65l-.364-2.86h-6.76L209.861 65h-4.55l9.386-18.2h5.304l2.99 18.2h-4.55zm-5.174-6.76h4.342l-.858-6.89-3.484 6.89zm28.67-11.44l-8.268 8.944 5.07 9.256h-4.29l-4.758-8.658L228.183 65h-4.16l3.198-18.2h4.16l-1.352 7.618 6.994-7.618h4.914z"/><path d="M251.856 65l-.364-2.86h-6.76L243.276 65h-4.55l9.386-18.2h5.304l2.99 18.2h-4.55zm-5.174-6.76h4.342l-.858-6.89-3.484 6.89zm23.834-11.44h4.16L271.478 65h-4.16l1.274-7.228h-5.72L261.598 65h-4.16l3.198-18.2h4.16l-1.222 6.968h5.72l1.222-6.968zM283 65.364c-2.773 0-4.922-.945-6.448-2.834-1.525-1.89-2.062-4.186-1.612-6.89.451-2.67 1.682-4.87 3.692-6.604 2.028-1.733 4.394-2.6 7.098-2.6 1.734 0 3.216.373 4.446 1.118a6.847 6.847 0 012.782 3.12l-3.822 2.002c-.71-1.456-1.993-2.184-3.848-2.184-1.577 0-2.938.494-4.082 1.482-1.126.988-1.828 2.297-2.106 3.926-.277 1.612-.034 2.92.728 3.926.763.988 1.898 1.482 3.406 1.482 1.994 0 3.571-.771 4.732-2.314l3.38 2.21a10.632 10.632 0 01-3.666 3.068 10.321 10.321 0 01-4.68 1.092zm9.097-.364l3.198-18.2h4.16l-1.69 9.594 8.71-9.594h3.12L306.397 65h-4.16l1.69-9.594-8.71 9.594h-3.12zm23.372-19.734l.572-3.38h7.8l-.572 3.38h-7.8zM308.995 65l3.198-18.2h4.16l-1.69 9.594 8.71-9.594h3.12L323.295 65h-4.16l1.69-9.594-8.71 9.594h-3.12z"/></g><defs><linearGradient id="paint0_linear" x1="347.43" y1="-68.163" x2="99" y2="119.147" gradientUnits="userSpaceOnUse"><stop stop-color="#6A0000"/><stop offset="1" stop-color="#fff" stop-opacity="0"/></linearGradient><linearGradient id="paint1_linear" x1="421.698" y1="49.878" x2="-114.57" y2="56.273" gradientUnits="userSpaceOnUse"><stop stop-color="#fff"/><stop offset="1" stop-color="#fff" stop-opacity="0"/></linearGradient><filter id="filter0_d" x=".515" y="0" width="407.381" height="112.545" filterUnits="userSpaceOnUse" color-interpolation-filters="sRGB"><feFlood flood-opacity="0" result="BackgroundImageFix"/><feColorMatrix in="SourceAlpha" values="0 0 0 0 0 0 0 0 0 0 0 0 0 0 0 0 0 0 127 0"/><feOffset/><feGaussianBlur stdDeviation="10"/><feColorMatrix values="0 0 0 0 1 0 0 0 0 0.233333 0 0 0 0 0.233333 0 0 0 0.8 0"/><feBlend in2="BackgroundImageFix" result="effect1_dropShadow"/><feBlend in="SourceGraphic" in2="effect1_dropShadow" result="shape"/></filter><filter id="filter1_d" x="82.418" y="41.886" width="245.075" height="25.478" filterUnits="userSpaceOnUse" color-interpolation-filters="sRGB"><feFlood flood-opacity="0" result="BackgroundImageFix"/><feColorMatrix in="SourceAlpha" values="0 0 0 0 0 0 0 0 0 0 0 0 0 0 0 0 0 0 127 0"/><feOffset dy="1"/><feGaussianBlur stdDeviation=".5"/><feColorMatrix values="0 0 0 0 0 0 0 0 0 0 0 0 0 0 0 0 0 0 0.25 0"/><feBlend in2="BackgroundImageFix" result="effect1_dropShadow"/><feBlend in="SourceGraphic" in2="effect1_dropShadow" result="shape"/></filter></defs></svg>